<svg width="188" height="173" viewBox="0 0 188 173" fill="none" xmlns="http://www.w3.org/2000/svg">
<g clip-path="url(#clip0_1_3485)">
<path d="M167.661 148.996C168.512 150.928 168.39 152.91 167.641 154.779C165.16 160.988 161.917 166.73 156.852 171.255C152.231 175.391 146.411 176.054 140.94 173.154C139.964 172.632 139.032 172.033 138.151 171.363C138.151 172.205 138.11 172.964 138.151 173.712C138.522 179.528 138.688 185.353 138.89 191.178C139.165 199.15 139.498 207.12 139.797 215.089C139.846 216.389 139.836 217.691 139.853 218.99H42.0991C42.3188 214.598 42.539 210.207 42.76 205.816C42.9896 201.393 43.221 196.969 43.478 192.548C43.7631 187.673 44.0652 182.798 44.3843 177.924C44.653 173.733 44.9218 169.541 45.2376 165.354C45.5808 160.812 45.9809 156.273 46.3517 151.732C46.6753 147.743 47.052 143.76 47.5286 139.793C47.5796 139.39 47.464 139.298 47.0599 139.313C41.9324 139.535 36.8146 139.233 31.7126 138.793C25.0648 138.221 18.4249 137.513 12.1381 135.074C8.71521 133.747 5.55518 131.962 3.07185 129.171C1.19856 127.065 0.437401 124.532 0.156898 121.792C-0.54338 114.942 0.906206 108.336 2.601 101.778C5.02801 92.47 7.95767 83.3 11.3771 74.308C11.4791 74.034 11.5967 73.7678 11.7105 73.4997C12.2048 72.3351 12.6678 72.1296 13.8251 72.5211C14.2547 72.6698 14.6882 72.799 15.1197 72.936C15.5246 72.8097 15.9591 72.8138 16.3614 72.9478C20.2885 74.2071 24.3316 75.0725 28.4309 75.5313C29.3979 75.633 30.3611 75.7681 31.332 75.8405C32.0068 75.8914 32.7051 75.8914 33.2603 76.3827C36.1163 76.598 35.93 76.4179 35.8103 79.2187C35.5984 83.965 35.1983 88.6976 34.7197 93.4262C34.4274 96.3366 34.1606 99.2509 33.8644 102.161C33.7879 102.911 33.9467 103.099 34.7628 102.891C41.4615 101.191 48.172 99.5249 54.9983 98.3897C60.0061 97.5599 65.0336 96.8533 70.1023 96.5382C70.6201 96.5069 71.138 96.4404 71.6558 96.3895C71.7552 96.4468 71.8394 96.527 71.9015 96.6233C71.9636 96.7197 72.0018 96.8293 72.0129 96.9433C72.7014 100.098 74.7433 102.312 77.1933 104.185C80.1474 106.44 83.4861 107.998 86.9816 109.233C87.3739 109.428 87.8407 109.567 88.033 110.039C88.0592 110.138 88.0592 110.242 88.033 110.341C87.5131 111.241 86.5206 111.652 85.8752 112.435C83.3252 115.519 81.7951 119.062 81.0674 122.973C80.5652 125.673 80.5103 128.396 80.6947 131.128C80.8242 133.085 81.3499 133.359 82.9662 132.275C86.9757 129.584 90.0082 126.026 92.2483 121.769C92.5778 121.144 92.7505 120.414 93.3841 119.978C93.8333 119.896 94.0274 120.225 94.2511 120.508C96.7144 125.202 100.293 129.223 104.673 132.218C106.309 133.342 106.689 133.197 106.866 131.203C107.258 126.752 106.634 122.44 104.793 118.334C103.756 115.936 102.218 113.786 100.281 112.03C99.7827 111.585 99.206 111.157 99.0922 110.409C99.1432 109.748 99.6375 109.571 100.163 109.43C103.829 108.15 107.441 106.751 110.532 104.32C112.792 102.543 114.759 100.537 115.379 97.5755C115.432 97.323 115.514 97.0686 115.789 96.9492C121.172 98.2997 126.45 99.9477 131.523 102.234C137.502 104.929 141.55 109.462 144.418 115.247C147.084 120.63 149.037 126.288 151.193 131.872C151.672 133.109 152.156 134.344 152.613 135.591C152.825 136.168 153.039 136.524 153.657 135.955C153.834 135.792 154.126 135.759 154.365 135.655C154.734 136.211 154.365 136.677 154.104 137.084C153.582 137.885 153.543 138.683 153.743 139.593C154.942 145.048 158.202 148.708 163.355 150.783C164.216 151.129 164.903 151.094 165.513 150.342C165.846 149.941 166.219 149.575 166.627 149.25C166.931 149.023 167.221 148.677 167.661 148.996Z" fill="#261E1E"/>
<path d="M67.5346 52.2012C66.9776 50.974 67.1423 49.6372 67.0443 48.3611C66.8854 46.4528 66.6814 44.5347 66.803 42.6108C66.8383 42.051 66.6774 41.7652 66.0654 41.5773C61.0614 40.0331 57.8268 36.6059 56.3105 31.7148C53.4133 22.4043 59.2529 13.1486 67.5876 10.5768C69.8591 9.87608 72.2266 9.53753 74.6276 9.89375C75.1906 9.97595 75.528 9.78219 75.838 9.30658C79.1589 4.26085 83.8999 1.25453 89.7846 0.287663C95.6693 -0.679207 101.026 0.767173 105.738 4.48395C107.373 5.7838 108.772 7.35492 109.873 9.12844C110.163 9.59035 110.418 9.70387 110.977 9.51989C117.878 7.27103 124.026 8.68417 129.183 13.7025C132.966 17.386 134.7 22.0853 134.34 27.3444C133.828 34.7545 128.941 40.3619 121.797 42.3406C121.254 42.4913 121.038 42.6675 120.997 43.2058C120.84 45.1806 120.662 47.1516 120.473 49.1225C120.375 50.15 120.242 51.1756 120.124 52.2012C119.661 52.4361 119.312 52.1326 118.947 51.9428C117.329 51.107 115.73 50.2302 113.965 49.7174C110.14 48.4326 106.198 47.5248 102.195 47.0067C100.259 46.7621 98.3174 46.5839 96.3676 46.5271C94.3884 46.4684 92.4033 46.4156 90.4221 46.5135C84.6414 46.8012 78.9862 47.768 73.5075 49.6665C71.8148 50.1996 70.1967 50.9447 68.6919 51.8841C68.3487 52.0955 68.0054 52.4224 67.5346 52.2012Z" fill="#FEE8D3"/>
<path d="M73.2329 49.4122C75.5613 48.367 78.0426 47.8189 80.524 47.3355C91.7677 45.1395 102.866 45.6817 113.784 49.2458C113.933 49.305 114.078 49.3743 114.218 49.4533C114.926 49.9152 115.022 50.6883 115.157 51.4105C115.64 53.9549 115.907 56.5443 116.35 59.1004C116.599 60.5312 116.772 61.9755 117.237 63.4669C117.78 63.1459 117.911 62.6703 118.084 62.2437C118.498 61.1507 118.83 60.0288 119.079 58.887C119.179 58.4799 119.237 58.0435 119.718 57.8733C120.764 57.9583 121.774 58.296 122.661 58.8572C123.547 59.4185 124.284 60.1864 124.806 61.0948C127.205 65.07 126.226 72.0925 120.687 74.5997C119.624 75.0812 118.545 75.1262 117.439 75.0205C116.952 74.9735 116.803 75.1301 116.764 75.5783C116.297 80.8237 113.502 84.6501 109.365 87.6564C109.155 87.809 108.973 87.9969 108.776 88.1672C108.49 88.4294 108.355 88.8111 108.011 89.0362C104.539 91.2987 100.867 93.0466 96.7069 93.6455C92.5876 94.2327 88.6646 93.5397 84.8689 91.9603C83.1967 91.2303 81.5884 90.3622 80.0611 89.365C79.4413 88.9736 78.941 88.4999 78.7253 87.7777C74.4471 84.8321 71.6028 80.9568 70.9359 75.6977C70.8516 75.0283 70.7201 74.8776 69.9845 74.9755C67.1285 75.3669 65.0571 73.8833 63.5114 71.7421C61.3321 68.7319 60.9614 65.3635 62.3659 61.9247C63.3466 59.5466 65.2768 58.2471 67.815 57.8497C68.4643 57.9789 68.3937 58.5661 68.5016 59.0006C68.7634 60.1731 69.1142 61.3239 69.551 62.4433C69.6844 62.7643 69.759 63.1362 70.1631 63.3574C70.5024 63.1128 70.5083 62.7135 70.5829 62.3514C71.3106 58.8284 71.6735 55.229 72.3189 51.6864C72.4562 50.8741 72.4483 49.9758 73.2329 49.4122Z" fill="#F08A5F"/>
<path d="M33.2839 76.3924C28.4957 76.0969 23.7643 75.4452 19.1311 74.1769C17.7894 73.8089 16.4712 73.3588 15.1432 72.9458C15.4963 71.4975 15.8501 70.0485 16.2045 68.5988C16.2552 68.309 16.201 68.0108 16.0515 67.7572C14.3214 63.9837 13.631 59.9518 13.1092 55.8807C12.5874 51.8097 12.0872 47.6956 11.6321 43.5952C11.5092 42.4294 11.4901 41.255 11.5752 40.0859C11.6379 39.1679 12.0774 38.4105 13.1347 38.2304C14.1919 38.0504 14.7902 38.5534 15.261 39.4048C15.6395 40.0898 15.8377 40.8433 16.232 41.5577C16.1437 40.6261 16.0633 39.6906 15.9613 38.7589C15.8161 37.6954 15.83 36.6164 16.0025 35.5569C16.1986 34.549 16.787 33.9578 17.7423 33.8424C18.6976 33.7269 19.3018 34.4119 19.6686 35.2124C20.1943 36.373 20.4827 37.6178 20.7318 38.8587C20.9809 40.0996 21.1477 41.3562 21.3438 42.6069C21.3791 42.8339 21.385 43.0668 21.6184 43.194C21.6678 43.1812 21.7199 43.1838 21.7676 43.2017C21.8154 43.2196 21.8565 43.2517 21.8852 43.2938C21.9668 43.3974 22.0098 43.5261 22.0068 43.6578C21.7675 45.5857 22.2559 47.4706 22.3265 49.3808C22.3677 50.5101 22.2363 50.7019 21.1594 51.1051C20.671 51.2891 20.1786 51.4712 19.698 51.663C18.6466 52.0818 18.325 51.9272 17.9935 50.8115C17.6011 49.4669 17.4599 48.0714 17.1637 46.7014C17.0083 46.0108 16.895 45.3114 16.8244 44.6071C17.1382 46.3686 17.352 48.5 17.8051 50.5923C18.0013 51.5279 18.1444 52.4008 17.1166 53.0075C20.6474 51.2988 24.2646 50.0717 28.2289 49.8858C27.3756 49.7018 27.1147 49.1028 26.9794 48.363C26.7008 46.8168 26.8812 45.253 26.7282 43.7028C26.7236 43.6057 26.7038 43.51 26.6694 43.4191C26.7361 41.0469 26.8028 38.6748 27.4109 36.3613C27.7561 35.0461 28.3211 34.5274 29.3607 34.5685C29.9205 34.5766 30.4603 34.7771 30.8891 35.1361C31.3179 35.4952 31.6095 35.9908 31.7146 36.5395C31.8655 37.3394 31.9345 38.1525 31.9205 38.9664C31.9441 42.3172 31.8186 45.6718 32.3031 49.0069C32.6385 51.3067 33.4427 53.4734 34.0959 55.685C33.2093 56.2233 32.2677 56.6636 31.387 57.2234C28.5505 59.0142 26.2869 62.4022 25.7514 65.8352C26.0178 65.568 26.1977 65.227 26.2674 64.8566C27.3854 61.2031 29.6157 58.4453 32.9582 56.5834C33.3917 56.3426 33.7115 55.9669 34.0979 55.6714C34.5314 54.452 34.9394 53.2228 35.4062 52.0152C35.9978 50.5265 36.9052 49.1831 38.0661 48.0773C38.2031 47.9388 38.3479 47.8081 38.4996 47.6858C39.4 46.9753 40.6574 46.8325 41.4204 47.3433C42.1305 47.8169 42.5091 49.0266 42.1736 50.0933C41.389 52.6063 40.4945 55.088 39.8531 57.6481C39.2528 60.0437 38.8389 62.4962 37.7993 64.7607C37.1029 66.2736 36.3733 67.8101 35.1532 68.9492C34.2136 69.826 33.8409 70.8203 33.7311 72.0181C33.6016 73.4841 33.4329 74.9363 33.2839 76.3924Z" fill="#F18B61"/>
<path d="M167.661 148.996C166.713 149.313 166.203 150.155 165.583 150.828C165.016 151.44 164.516 151.595 163.728 151.303C157.812 149.121 154.302 144.952 153.226 138.748C153.142 138.299 153.233 137.836 153.48 137.452C153.83 136.883 154.304 136.366 154.379 135.657C155.026 133.896 155.607 132.091 156.696 130.52C158.153 128.395 160.008 126.57 162.158 125.147C163.653 124.168 165.189 123.245 166.633 122.18C167.492 121.548 168.445 121.145 169.557 121.546C170.466 121.875 170.876 122.575 170.734 123.524C170.538 124.734 169.924 125.705 169.098 126.568L167.304 128.447L167.447 128.643C167.922 128.347 168.408 128.071 168.867 127.754C172.045 125.544 175.001 123.031 178.239 120.904C179.024 120.381 179.846 119.896 180.85 119.966C182.459 120.076 182.749 120.383 182.782 121.988C182.726 122.177 182.603 122.339 182.435 122.444C179.312 124.85 176.501 127.635 173.3 129.946C171.927 130.925 171.951 130.982 172.935 132.346C173.967 133.773 174.965 135.211 175.605 136.875C175.968 137.82 176.154 137.853 177.047 137.266C178.708 136.172 180.266 134.935 181.882 133.778C182.449 133.346 183.043 132.95 183.659 132.59C182.874 132.712 182.251 133.191 181.621 133.63C180.23 134.597 178.887 135.63 177.519 136.63C177.037 136.982 176.521 137.497 175.903 136.826C175.15 136.004 174.987 134.765 175.554 134.176C175.939 133.824 176.354 133.507 176.796 133.228C179.283 131.436 181.515 129.334 183.887 127.4C184.589 126.826 185.207 126.012 186.29 126.116C187.525 126.312 188.173 127.226 187.971 128.48C187.737 129.925 186.976 131.07 185.944 132.06C185.585 132.404 185.262 132.633 185.78 133.209C186.38 133.874 186.182 134.73 185.834 135.511C185.128 137.092 183.898 138.274 182.731 139.488C178.736 143.651 173.728 146.279 168.592 148.708C168.289 148.826 167.978 148.922 167.661 148.996Z" fill="#F0885E"/>
<path d="M115.803 96.9572C115.587 99.343 114.43 101.263 112.762 102.895C109.263 106.334 104.916 108.254 100.314 109.695C100.251 109.734 100.163 109.754 100.142 109.708C99.5532 108.562 100.304 106.497 101.46 106.06C103.512 105.277 105.481 104.354 107.344 102.915C105.62 103.986 103.79 104.878 101.884 105.577C100.428 106.086 100.091 105.988 99.355 104.663C98.998 104.019 98.1782 103.667 98.1958 102.801C98.9216 101.627 100.051 100.819 101.011 99.8656C103.07 97.7988 105.505 96.0862 107.021 93.5027C107.275 93.0872 107.503 92.6564 107.703 92.2128C108.009 91.473 108.376 90.7566 108.38 89.9248C108.374 89.795 108.404 89.6662 108.467 89.5525C108.53 89.4388 108.624 89.3448 108.737 89.2809C109.453 89.4414 110.055 89.8309 110.628 90.2595C112.443 91.6296 113.92 93.3049 115.22 95.1526C115.603 95.6869 115.862 96.2721 115.803 96.9572Z" fill="#CF282C"/>
<path d="M86.9188 109.542C82.211 107.945 77.825 105.786 74.3844 102.095C72.9054 100.507 71.7618 98.6873 71.6775 96.4032C71.8089 96.0411 71.8736 95.6301 72.0835 95.3228C73.6665 93.0465 75.4594 90.9738 77.8897 89.5411C78.0909 89.4405 78.2986 89.3535 78.5115 89.2808C78.9666 89.2397 79.0411 89.6018 79.0804 89.8973C79.1961 90.7389 79.5767 91.4631 79.9651 92.197C81.3068 94.6495 83.1604 96.6634 85.2789 98.4602C86.6402 99.6188 87.7858 101.005 89.1451 102.179C89.3217 102.331 89.4413 102.538 89.4845 102.766C89.5173 102.945 89.4823 103.13 89.3862 103.284C89.2901 103.439 89.1399 103.552 88.9647 103.602C88.2742 103.846 87.8642 104.375 87.4797 104.952C86.8756 105.861 86.6167 105.931 85.6241 105.487C83.3997 104.508 81.55 102.942 79.6237 101.742C81.2106 103.453 83.2781 104.723 85.4869 105.755C86.4147 106.189 87.013 106.688 86.9698 107.773C86.9521 108.193 87.1306 108.599 87.1973 109.016C87.2326 109.231 87.3758 109.552 86.9188 109.542Z" fill="#D0292C"/>
<path d="M79.7257 92.4711C78.9411 91.5493 78.8411 90.3729 78.5076 89.2808C79.0745 88.8483 78.6057 88.2729 78.7155 87.7777C81.0086 89.8876 83.7607 91.2107 86.6559 92.2265C88.891 93.0372 91.2492 93.4575 93.6273 93.4692C97.8859 93.4692 101.762 92.2167 105.422 90.1557C106.552 89.5196 107.652 88.8306 108.757 88.1671L108.721 89.2711C108.822 90.3961 108.554 91.5233 107.957 92.4828C104.661 95.9001 100.556 97.7888 95.9322 98.4152C90.328 99.1746 85.3829 97.3897 81.0243 93.898C80.5241 93.4948 80.3573 92.7706 79.7257 92.4711Z" fill="#CE5F3F"/>
<path d="M21.7223 43.1842C21.6886 43.184 21.6551 43.188 21.6223 43.196C21.638 40.3404 21.2555 37.4887 21.536 34.6292C21.5937 34.0783 21.738 33.54 21.9636 33.034C22.2814 32.306 22.7777 31.8127 23.6741 31.8284C24.5706 31.844 25.2316 32.2453 25.5769 33.083C25.9927 34.087 26.1026 35.1674 26.1948 36.2282C26.4478 39.1092 26.5871 41.9962 26.3203 44.8889C26.2713 45.4154 26.5007 44.9164 26.6008 44.9124C26.8361 45.0573 26.797 45.2843 26.8107 45.5133C26.8656 46.5506 26.7773 47.588 26.8832 48.6214C26.9597 49.375 26.5713 49.7958 25.8867 49.9504C25.2021 50.105 24.4862 50.2263 23.784 50.3574C23.0268 50.5003 22.5757 50.1715 22.4717 49.4337C22.2442 47.8033 21.9519 46.1769 21.9244 44.5269C21.9206 44.1069 21.8931 43.6873 21.8421 43.2703C21.8244 43.1411 21.8676 43.2997 21.8421 43.1745C21.7852 42.9611 21.7635 43.2057 21.7223 43.1842Z" fill="#F18960"/>
<path d="M183.161 122.006C184.748 121.338 185.585 121.419 186.337 122.315C187.088 123.211 187.102 124.626 186.313 125.914C184.548 126.077 183.463 127.367 182.253 128.418C180.185 130.214 178.069 131.941 175.872 133.581C174.962 134.258 174.524 134.193 173.834 133.281C173.518 132.866 173.226 132.434 172.921 132.011C172.455 131.359 172.566 130.817 173.175 130.312C174.253 129.418 175.428 128.65 176.509 127.744C178.739 125.852 181.007 123.996 183.161 122.006Z" fill="#F08A60"/>
<path d="M119.718 57.8733C119.308 59.5369 118.977 61.2279 118.282 62.8055C118.043 63.3476 117.855 64.2147 117.199 64.1325C116.621 64.0601 116.668 63.1715 116.576 62.6274C115.958 58.9557 115.399 55.2741 114.787 51.6003C114.665 50.8722 114.41 50.1676 114.218 49.4474C116.326 50.0639 118.239 51.0993 120.122 52.1993C120.389 53.857 119.973 55.4718 119.802 57.1022C119.775 57.3644 119.742 57.6189 119.718 57.8733Z" fill="#211919"/>
<path d="M73.233 49.4122C72.3503 52.671 72.0796 56.0374 71.499 59.3491C71.2597 60.7191 70.989 62.0892 70.7144 63.4475C70.6594 63.7274 70.6124 64.1011 70.2926 64.152C69.918 64.2107 69.7532 63.835 69.608 63.5649C68.7449 61.911 68.3252 60.1163 67.9525 58.3059C67.9118 58.1519 67.8607 58.0008 67.7995 57.8537C67.6975 56.3095 67.3365 54.7906 67.3777 53.2347C67.3875 52.8863 67.2934 52.5183 67.5307 52.2032C69.306 51.0093 71.1576 49.9857 73.233 49.4122Z" fill="#201819"/>
<path d="M183.161 122.006C183.131 122.886 182.402 123.252 181.843 123.71C178.957 126.077 176.223 128.631 173.139 130.756C172.82 130.976 172.747 131.22 173.022 131.567C173.5 132.181 173.938 132.827 174.395 133.463C174.685 133.874 174.983 133.872 175.375 133.573C178.122 131.434 180.831 129.267 183.418 126.948C184.224 126.225 185.018 125.323 186.317 125.914L186.288 126.11C183.53 127.813 181.323 130.199 178.769 132.154C177.918 132.806 177.082 133.485 176.186 134.072C175.507 134.516 175.254 134.892 175.693 135.716C176.397 137.025 176.329 137.061 177.541 136.182C179.122 135.039 180.701 133.89 182.29 132.759C182.971 132.275 183.704 131.966 184.556 132.275C184.556 132.361 184.577 132.461 184.556 132.471C181.837 133.97 179.54 136.074 176.943 137.755C176.011 138.356 175.738 138.307 175.373 137.272C174.642 135.174 173.351 133.418 171.988 131.717C171.554 131.177 171.547 130.813 172.086 130.431C175.55 127.989 178.622 125.069 181.904 122.407C182.153 122.194 182.456 122.054 182.78 122.004L183.161 122.006Z" fill="#CF5C3D"/>
<path d="M21.7223 43.1842L21.7753 42.323L21.8832 42.3113C22.1617 44.3481 22.4389 46.385 22.7149 48.4218C22.7286 48.5157 22.7149 48.6175 22.7247 48.7114C22.8385 50.1148 22.8404 50.1246 24.241 49.8447C24.9707 49.7018 25.9024 49.8584 26.3752 49.3515C26.8479 48.8445 26.3614 47.9539 26.4418 47.2298C26.5281 46.4606 26.5497 45.6855 26.6007 44.9124L26.6772 43.4191C27.15 44.4838 27.0696 45.6386 27.2167 46.7464C27.2775 47.2279 27.3167 47.725 27.3442 48.1967C27.3952 49.0462 27.6129 49.5667 28.5976 49.4552C28.6715 49.4388 28.7482 49.4416 28.8207 49.4633C28.8931 49.4849 28.9589 49.5248 29.0116 49.5789C29.0643 49.6331 29.1022 49.6997 29.1217 49.7726C29.1413 49.8455 29.1418 49.9222 29.1233 49.9954C29.0742 50.3086 28.829 50.3652 28.5348 50.3652C24.5352 50.3652 20.8651 51.5396 17.3932 53.4381C17.0224 53.6339 16.6537 53.8295 16.3948 53.35C16.1358 52.8705 16.5576 52.6669 16.8734 52.5671C17.7168 52.3049 17.6815 51.8019 17.5109 51.0719C16.9087 48.5118 16.7439 45.8872 16.5105 43.2645C16.9557 43.883 17.0597 44.6228 17.2186 45.3332C17.6364 47.2004 18.0267 49.0735 18.4151 50.9485C18.5407 51.5533 18.7545 51.751 19.3959 51.4124C20.0373 51.0738 20.7808 50.8565 21.483 50.5962C21.8322 50.4671 22.0715 50.3653 22.0205 49.8525C21.8204 47.6428 21.3986 45.4272 21.7223 43.1842Z" fill="#D05D3E"/>
<path d="M93.4566 120.054C91.2589 125.355 87.4853 129.857 82.6445 132.952C81.3086 133.823 80.6829 133.559 80.4867 131.974C79.7865 126.323 80.5005 120.898 83.2016 115.791C84.3785 113.568 85.8301 111.621 87.9427 110.209C88.2605 110.29 88.3938 110.574 88.5782 110.797C89.6257 112.039 91.0086 112.617 92.5818 112.795C93.6743 112.92 94.0745 113.214 94.1686 114.275C94.301 115.799 94.301 117.332 94.1686 118.856C94.1157 119.346 93.9803 119.833 93.4566 120.054Z" fill="#D0292C"/>
<path d="M99.3021 110.466C100.404 111.572 101.656 112.562 102.564 113.813C103.598 115.249 104.565 116.76 105.265 118.432C107.084 122.672 107.737 127.32 107.156 131.896C106.95 133.553 106.448 133.814 105.073 132.911C100.316 129.797 96.5696 125.758 93.9843 120.675C93.9715 120.156 94.0663 119.64 94.2628 119.16C94.7985 117.688 94.9537 116.106 94.714 114.558C94.5453 113.366 94.7768 112.975 95.891 112.533C96.9522 112.106 98.0094 111.687 98.7214 110.715C98.7786 110.616 98.866 110.539 98.9706 110.494C99.0751 110.45 99.1914 110.44 99.3021 110.466Z" fill="#CF292C"/>
<path d="M99.302 110.466C98.6469 111.793 97.4464 112.398 96.1302 112.848C94.9101 113.269 94.9121 113.341 95.1004 114.594C95.4201 116.747 95.1004 118.786 93.9843 120.675C93.7881 120.491 93.8313 120.088 93.4469 120.054C94.1158 118.083 93.8097 116.064 93.7469 114.058C93.7254 113.376 93.3252 113.198 92.6426 113.173C90.9164 113.108 89.4256 112.456 88.2879 111.096C88.0677 110.856 87.9429 110.543 87.9368 110.217C87.9222 110.174 87.9181 110.128 87.925 110.082C87.9385 110.006 87.9724 109.934 88.0232 109.876C88.0739 109.817 88.1396 109.773 88.2134 109.748C88.6194 109.671 88.8685 109.943 89.1627 110.151C91.2302 111.621 95.1162 111.668 97.2798 110.311C98.5489 109.517 98.7529 108.311 98.6665 107C98.6098 105.851 98.2117 104.745 97.5229 103.823C97.3738 103.647 97.2858 103.427 97.2719 103.197C97.4877 102.664 97.8721 102.621 98.3409 102.833C98.949 103.616 99.6768 104.301 100.071 105.252C100.287 105.771 100.783 105.555 101.187 105.428C103.107 104.798 104.945 103.944 106.664 102.884C106.86 102.766 107.035 102.615 107.239 102.514C107.484 102.39 107.778 102.093 108.023 102.404C108.268 102.715 107.941 102.94 107.713 103.113C106.324 104.19 104.796 105.076 103.17 105.747C102.448 106.039 101.77 106.444 100.983 106.569C100.917 106.574 100.852 106.592 100.793 106.621C100.733 106.651 100.68 106.693 100.637 106.743C100.594 106.794 100.561 106.852 100.541 106.915C100.52 106.979 100.513 107.045 100.518 107.111C100.601 107.984 100.308 108.824 100.322 109.687C100.018 110.006 99.2864 109.748 99.302 110.466Z" fill="#AD1B21"/>
<path d="M88.1605 109.865L87.9329 110.082L86.9266 109.542C86.8599 108.722 86.5049 107.943 86.5814 107.098C86.6324 106.54 86.1557 106.422 85.7791 106.254C83.2977 105.142 81.0184 103.737 79.1412 101.752C78.9588 101.557 78.5351 101.379 78.7646 101.067C79.0333 100.703 79.3236 101.03 79.5884 101.218C81.6225 102.666 83.6234 104.154 85.889 105.252C86.5324 105.563 86.8286 105.502 87.1797 104.86C87.572 104.15 87.9369 103.295 88.9844 103.316C89.3355 103.316 89.1472 102.925 89.3649 102.827C89.6768 102.584 89.9533 102.698 90.228 102.905C90.5222 103.349 90.1436 103.563 89.8925 103.776C88.288 105.146 87.8702 106.87 88.2821 108.865C88.3566 109.207 88.4449 109.558 88.1605 109.865Z" fill="#AD1B22"/>
<path d="M107.496 31.343C111.001 31.9419 114.065 33.1848 117.025 34.7153C117.913 35.1964 118.759 35.7516 119.553 36.375C119.875 36.6177 120.157 36.9309 119.893 37.3654C119.791 37.5389 119.625 37.6657 119.431 37.7187C119.236 37.7718 119.029 37.7468 118.853 37.6492C118.088 37.293 117.347 36.8781 116.607 36.4749C112.568 34.2339 108.172 33.1241 103.68 32.2062C99.2531 31.3019 94.7964 31.3822 90.3417 31.4879C83.694 31.6464 77.2718 32.8755 71.3694 36.1304C70.5436 36.5845 69.7688 37.1305 68.9744 37.6394C68.7253 37.7999 68.4742 38.0308 68.1898 37.7823C67.9053 37.5337 67.9839 37.205 68.0937 36.882C68.3428 36.1422 68.9548 35.7429 69.5629 35.3769C72.1621 33.8125 74.9674 32.6175 77.8976 31.8265C78.8548 31.5662 78.9058 31.4703 78.1388 30.7794C76.2675 29.0961 75.4966 26.7925 74.5315 24.5945C74.4773 24.4408 74.4468 24.2798 74.4413 24.1169C74.3962 23.6492 74.5276 23.2421 75.0298 23.1247C75.5319 23.0072 75.6496 23.43 75.7575 23.7568C76.3146 25.4498 77.364 26.7886 78.6763 27.957C79.521 28.7212 80.4457 29.3924 81.4342 29.9593C81.8248 30.2004 82.2801 30.3158 82.7387 30.29C84.812 30.1237 86.8834 29.926 88.9588 29.8007C91.9531 29.6138 94.9563 29.6138 97.9506 29.8007C99.9279 29.928 101.907 30.0513 103.859 30.4368C104.167 30.4975 104.416 30.2862 104.657 30.1218C107.011 28.5031 109.22 26.7416 110.195 23.8899C110.344 23.4554 110.628 23.0972 111.146 23.3184C111.695 23.5552 111.776 24.0465 111.574 24.5573C110.603 26.9706 109.62 29.3858 107.496 31.343Z" fill="#E7C6AA"/>
<path d="M92.6896 74.034C94.4727 74.2826 95.9479 73.7267 97.1699 72.3997C98.5862 70.8653 100.373 70.6989 102.123 71.8968C102.794 72.3567 103.439 72.8558 104.116 73.304C105.779 74.4079 107.464 74.6858 109.179 73.396C109.434 73.2003 109.73 72.9889 110.067 73.2433C110.405 73.4978 110.43 73.9186 110.354 74.31C109.897 76.602 108.588 78.3165 106.521 79.3166C102.729 81.1467 99.0667 80.6005 95.5693 78.4221C94.9082 78.0111 94.3217 77.1206 93.6979 77.1206C93.0741 77.1206 92.521 78.0111 91.8835 78.4554C87.7818 81.354 82.0462 80.9215 78.9372 77.4768C78.1192 76.5706 77.5248 75.5313 77.3679 74.2924C77.3189 73.9009 77.3326 73.5095 77.7249 73.2512C78.1172 72.9928 78.3899 73.2864 78.6723 73.4821C80.2573 74.5801 81.8579 74.4255 83.4488 73.5193C83.9879 73.2159 84.5004 72.8675 84.9807 72.478C86.1361 71.5327 87.4131 70.9846 88.9333 71.108C88.9879 71.0708 89.0496 71.0454 89.1146 71.0332C89.1795 71.021 89.2463 71.0223 89.3107 71.0369C89.3752 71.0516 89.4359 71.0794 89.4891 71.1186C89.5423 71.1577 89.5868 71.2075 89.6198 71.2646C90.4605 72.3712 91.5017 73.3106 92.6896 74.034Z" fill="#201819"/>
<path d="M85.7439 53.5478C83.1938 52.99 80.681 53.8257 78.2664 55.1684C77.874 55.3915 77.4288 55.5599 76.9874 55.2389C76.5147 54.8983 76.5343 54.3894 76.6049 53.9079C76.6673 53.4878 76.8122 53.0841 77.0314 52.72C77.2505 52.3559 77.5395 52.0387 77.8819 51.7863C80.3005 49.9328 83.0329 49.4553 85.9831 50.0581C86.2965 50.1404 86.5946 50.2726 86.8658 50.4495C87.7348 50.9545 88.1565 51.8196 87.925 52.5457C87.7093 53.2268 87.0601 53.5674 85.7439 53.5478Z" fill="#211919"/>
<path d="M103.572 49.8016C105.926 49.9425 108.137 50.424 109.859 52.2168C110.313 52.6859 110.643 53.2603 110.818 53.8883C110.95 54.3462 110.909 54.814 110.532 55.1526C110.155 55.4912 109.673 55.4208 109.245 55.231C108.594 54.9433 107.97 54.585 107.319 54.2954C105.629 53.5055 103.742 53.233 101.897 53.5125C101.606 53.5503 101.312 53.5628 101.018 53.5497C100.383 53.534 99.8591 53.2561 99.6002 52.6807C99.3236 52.0602 99.5002 51.4574 99.9691 50.9759C100.958 49.9601 102.231 49.7859 103.572 49.8016Z" fill="#201819"/>
<path d="M83.2761 59.1592C84.7591 59.2277 86.1577 59.9831 87.1306 61.4726C87.4482 61.9318 87.6091 62.4808 87.5896 63.0383C87.5919 63.2348 87.5269 63.4263 87.4052 63.5808C87.2835 63.7353 87.1126 63.8436 86.9207 63.8878C86.7495 63.9471 86.5633 63.9471 86.3921 63.8878C86.221 63.8284 86.0748 63.7134 85.9772 63.561C85.8438 63.377 85.7261 63.1832 85.5986 62.9953C84.4079 61.2338 82.3248 61.0773 80.8772 62.6274C80.6982 62.8155 80.5392 63.0213 80.4025 63.2419C80.1063 63.7214 79.7512 64.1207 79.147 63.8291C78.5134 63.5198 78.4585 62.9601 78.6468 62.3299C79.1941 60.496 81.0537 59.1298 83.2761 59.1592Z" fill="#201818"/>
<path d="M104.375 59.1729C106.348 59.1729 108.188 60.4901 108.767 62.2888C108.963 62.9054 108.998 63.4787 108.355 63.8134C107.711 64.1481 107.325 63.6921 106.982 63.2263C105.387 60.995 103.351 60.9716 101.658 63.1696C101.313 63.6198 100.965 64.1071 100.302 63.745C99.6394 63.3829 99.8278 62.7918 99.971 62.2712C100.459 60.5292 102.411 59.1729 104.375 59.1729Z" fill="#201819"/>
<path d="M92.6896 74.0341C91.3263 73.7777 90.4397 72.8735 89.6571 71.8225C89.4609 71.5504 89.3707 71.1472 88.9353 71.1119C88.8823 69.8143 89.2707 68.6028 89.7042 67.4148C90.7163 64.6355 91.7462 61.8641 91.8815 58.8656C91.8953 58.5857 91.9776 58.3332 92.2954 58.2882C92.674 58.2373 92.7819 58.5211 92.8839 58.8128C93.2566 59.9166 93.0015 60.999 92.7701 62.0774C92.313 64.2089 91.4676 66.2228 90.836 68.3014C90.4319 69.6303 90.2102 70.9456 91.0713 72.2295C91.7265 73.2081 92.6249 73.6603 93.8175 73.7386C93.4389 74.0342 92.9897 73.7464 92.6896 74.0341Z" fill="#CE5E3E"/>
<path d="M94.0235 83.693C92.2717 83.663 90.5557 83.1917 89.0353 82.3229C88.809 82.1956 88.5962 82.0461 88.3998 81.8766C88.0486 81.5654 87.8878 81.1799 88.2036 80.765C88.5194 80.35 88.8823 80.4812 89.2393 80.716C90.9792 81.8649 92.9054 82.1272 94.9278 81.91C96.2362 81.769 97.4779 81.4245 98.543 80.6162C98.9 80.3461 99.304 80.1171 99.6395 80.5888C99.9259 80.9803 99.7807 81.3874 99.4178 81.7064C97.829 83.1117 95.9086 83.5873 94.0235 83.693Z" fill="#201819"/>
<path d="M122.417 63.3633C122.407 63.6647 122.186 63.7978 121.978 63.9622C120.534 65.1111 119.534 66.5066 119.232 68.3934C119.145 68.9336 119.047 69.9063 118.251 69.691C117.454 69.4757 118.084 68.6849 118.184 68.1917C118.594 66.1582 119.492 64.4025 121.272 63.193C121.558 62.9972 121.833 62.872 122.174 62.9836C122.252 63.0098 122.318 63.0617 122.362 63.1307C122.407 63.1998 122.426 63.2818 122.417 63.3633Z" fill="#CE5D3D"/>
<path d="M65.7535 62.9307C66.0111 63.0681 66.2576 63.2251 66.491 63.4004C68.3054 65.0033 69.2489 67.0623 69.6295 69.4149C69.6492 69.4861 69.6539 69.5606 69.6432 69.6337C69.6325 69.7068 69.6067 69.7769 69.5674 69.8394C69.5281 69.902 69.4762 69.9557 69.4149 69.9972C69.3537 70.0387 69.2845 70.067 69.2117 70.0804C68.9194 70.1469 68.7155 69.9042 68.637 69.6518C68.578 69.3666 68.534 69.0785 68.5055 68.7887C68.214 67.2084 67.4309 65.7599 66.2674 64.6491C65.9513 64.3661 65.6575 64.0592 65.3887 63.7311C65.0748 63.3182 65.3259 63.0951 65.7535 62.9307Z" fill="#CE5C3D"/>
<path d="M34.1018 55.6831C34.1214 56.2527 33.784 56.5893 33.3171 56.8222C29.7353 58.6502 27.5658 61.6017 26.4517 65.3948C26.4164 65.5532 26.3719 65.7094 26.3182 65.8626C26.1927 66.1699 26.0495 66.5183 25.6317 66.3911C25.2139 66.2639 25.2394 65.9213 25.3277 65.5827C26.4536 61.1809 28.8938 57.8223 33.068 55.8357C33.3877 55.6831 33.7231 55.5226 34.0958 55.685L34.1018 55.6831Z" fill="#D05D3E"/>
<path d="M166.111 131.081C166.06 133.481 165.342 135.612 163.592 137.327C163.46 137.471 163.314 137.602 163.157 137.718C162.802 137.947 162.372 138.272 162.019 137.865C161.627 137.417 162.17 137.162 162.429 136.949C164.332 135.383 165.077 133.311 165.142 130.927C165.133 130.764 165.145 130.601 165.179 130.441C165.264 130.169 165.332 129.827 165.732 129.893C166.046 129.944 166.101 130.222 166.109 130.496C166.115 130.692 166.111 130.888 166.111 131.081Z" fill="#CF5B3D"/>
<path d="M90.0945 103.013L89.357 102.817C87.7878 101.349 86.2676 99.8499 84.6728 98.4231C82.723 96.6811 81.0164 94.7533 79.7296 92.4712C80.781 92.9644 81.5127 93.8824 82.4582 94.5263C86.9031 97.5522 91.6971 98.885 97.0777 97.8359C100.548 97.1587 103.59 95.638 106.385 93.5398C106.891 93.1582 107.441 92.8332 107.97 92.4829C106.515 95.6144 103.8 97.6617 101.409 99.981C100.406 100.96 99.3649 101.883 98.3409 102.833L97.3326 103.21C97.0933 103.451 96.7972 103.42 96.5167 103.345C94.7415 102.878 92.9349 103.017 91.1381 103.107C90.7733 103.124 90.4476 102.964 90.0945 103.013Z" fill="#F08B5F"/>
<path d="M90.0945 103.013C92.5269 102.336 94.9376 102.469 97.3327 103.209C98.951 104.187 99.667 107.884 98.5842 109.62C97.7564 110.949 96.2558 111.427 94.7925 111.578C93.1507 111.754 91.4912 111.732 89.8886 111.043C89.2021 110.748 88.8352 110.094 88.1526 109.859C87.7054 108.374 87.5151 106.912 88.1526 105.403C88.5704 104.397 89.3629 103.743 90.0945 103.013Z" fill="#CF282C"/>
</g>
<defs>
<clipPath id="clip0_1_3485">
<rect width="188" height="219" fill="white"/>
</clipPath>
</defs>
</svg>
