<svg width="211" height="139" viewBox="0 0 211 139" fill="none" xmlns="http://www.w3.org/2000/svg">
<g clip-path="url(#clip0_1_3541)">
<path d="M56.0729 92.1138C55.6225 88.9602 55.4893 85.7694 55.6754 82.5892C56.696 82.3511 57.7457 82.6927 58.7685 82.409C59.0603 82.1593 59.4393 82.0357 59.8222 82.0653C63.1948 82.0653 66.5674 82.0011 69.94 82.0943C73.0061 81.9949 76.0744 82.0549 79.1426 82.0549C83.039 82.0549 86.9333 82.0053 90.8296 82.0819C94.7218 82.0073 98.6141 82.0549 102.508 82.0529C106.883 82.0529 111.26 82.0239 115.634 82.0632C118.493 82.0487 121.353 82.0529 124.21 82.0529C124.588 82.0335 124.968 82.0474 125.344 82.0943C126.738 82.0488 128.132 82.0425 129.526 82.0757C131.375 82.0922 133.224 82.026 135.073 82.0902C136.238 82.0405 137.404 82.0487 138.567 82.1046C139.551 82.0819 140.538 81.997 141.516 82.1813C142.217 82.4422 142.12 83.0095 142.041 83.5685C141.545 86.907 140.719 90.1882 139.578 93.3645C137.329 99.7211 133.781 105.287 129.417 110.378C129.009 110.935 128.535 111.44 128.007 111.884C126.228 113.116 124.806 114.783 123.038 116.025C122.76 116.232 122.535 116.491 122.239 116.671C121.34 116.901 120.431 117.064 119.547 117.398C118.742 117.704 118.259 118.147 118.305 119.054C117.684 119.938 116.672 120.296 115.775 120.756C113.643 121.868 111.446 122.845 109.214 123.746C108.779 123.817 108.333 123.727 107.96 123.491C107.519 123.154 107.535 122.663 107.504 122.177C107.223 117.638 103.707 114.389 99.1089 114.335C97.4692 114.315 95.9599 114.64 94.5893 115.528C92.1836 117.083 91.6391 119.804 93.2457 122.154C93.4403 122.437 93.6908 122.69 93.6474 123.075C92.695 124.11 91.784 125.177 90.7116 126.096C89.6128 126.381 88.4801 126.513 87.3452 126.49C84.0037 126.075 80.7409 125.264 77.4532 124.587C75.6707 123.792 74.0164 122.814 72.8136 121.218C72.7607 120.877 72.7877 120.528 72.8923 120.199C73.4099 118.302 73.0248 116.534 72.1449 114.834C72.0041 114.561 71.824 114.3 71.9027 113.965C71.9245 113.918 71.9579 113.877 71.9998 113.847C72.0417 113.816 72.0907 113.797 72.1421 113.791C72.1935 113.785 72.2456 113.792 72.2936 113.811C72.3415 113.831 72.3837 113.862 72.4161 113.903C73.0558 114.495 73.915 114.704 74.6065 115.201C74.9357 115.549 74.9419 116.017 75.0682 116.443C75.2545 117.064 75.3995 117.704 76.0433 118.075C76.4201 118.282 76.5174 118.739 76.6851 119.11C77.2001 120.247 78.0725 121.185 79.1695 121.781C80.0225 122.264 80.2254 122.181 80.4469 121.251C80.67 120.275 80.6897 119.264 80.5049 118.28C79.714 113.724 76.7327 110.803 72.002 109.923C71.7265 109.823 71.4314 109.788 71.1402 109.822C70.8491 109.856 70.5699 109.958 70.325 110.12C69.5796 110.553 68.7897 110.905 67.969 111.169C67.2538 111.253 66.5291 111.152 65.8635 110.877C65.6067 110.641 65.7703 110.426 65.9318 110.256C67.6315 108.494 67.9193 106.295 67.7413 104.022C67.5094 101.079 66.1098 98.7355 63.7434 96.9818C62.9733 96.4082 62.7083 96.5076 62.4474 97.4145C62.0748 98.6755 62.0603 99.9179 62.6048 101.142C62.9339 101.879 62.965 102.591 62.2963 103.202C60.9464 102.432 59.315 102.218 58.1308 101.113C57.3979 99.7191 57.1619 98.1641 56.6816 96.6878C56.4856 95.5834 56.2482 94.4791 55.9694 93.3748C55.8845 92.9649 55.7127 92.5279 56.0729 92.1138Z" fill="#4A4263"/>
<path d="M129.137 110.426C130.441 108.714 131.785 107.03 133.037 105.283C135.449 101.904 137.42 98.2327 138.903 94.3563C140.13 91.1605 141.044 87.8526 141.629 84.4796C141.743 83.8294 141.975 83.1668 141.741 82.4898C142.284 81.881 142.994 82.1274 143.654 82.1129C149.207 82.0114 154.757 82.0736 160.31 82.0756C160.983 82.1978 161.656 82.0508 162.331 82.0756C162.745 82.0922 163.142 82.1129 163.469 82.4049C164.198 82.5705 165.188 82.0964 165.618 82.6119C166.097 83.1938 165.722 84.1794 165.771 84.9869C165.773 85.0885 165.77 85.19 165.761 85.2913C165.742 85.8959 165.221 85.9269 164.834 86.076C163.579 86.555 162.324 87.0285 161.068 87.4964C160.55 87.691 159.993 87.9105 159.927 88.5566C159.854 89.2544 160.283 89.7078 160.817 90.0763C161.012 90.2157 161.22 90.335 161.438 90.4325C162.039 90.6872 162.293 91.1137 162.084 91.7494C161.809 92.5776 161.925 93.3748 162.213 94.1719C162.226 94.5518 162.162 94.9303 162.022 95.2839C160.979 98.6808 160.455 102.216 160.467 105.769C160.467 106.39 160.507 107.012 160.275 107.608C160.008 108.105 159.844 108.672 159.333 109.004C159.039 109.105 158.721 109.111 158.424 109.02C155.732 108.459 153.343 109.08 151.285 110.927C151.13 111.062 150.963 111.184 150.786 111.289C150.651 111.389 150.486 111.441 150.317 111.438C150.149 111.434 149.986 111.374 149.855 111.269C149.039 110.588 148.221 109.921 147.225 109.492C145.014 108.542 142.828 108.612 140.636 109.54C140.222 109.712 139.841 109.954 139.373 109.954C137.863 109.589 136.451 108.846 134.818 108.977C133.869 109.032 132.925 109.161 131.996 109.362C131.361 109.378 130.843 109.687 130.321 110.01C129.963 110.229 129.652 110.604 129.137 110.426Z" fill="#3C3851"/>
<path d="M160.033 107.596C160.327 106.067 160.086 104.519 160.227 102.98C160.531 99.9398 161.136 96.9371 162.035 94.0166C163.446 93.1182 165.093 92.6625 166.765 92.7081C167.016 93.1222 166.815 93.5114 166.753 93.909C165.384 102.641 167.043 110.635 172.771 117.526C177.38 123.073 183.315 126.204 190.56 126.844C192.858 127.051 195.081 126.804 197.315 126.384C198.009 126.626 198.547 127.105 199.087 127.579C198.975 128.318 198.549 128.912 198.187 129.537C196.029 132.09 193.011 132.85 189.93 133.289C182.665 134.325 176.204 132.308 170.469 127.806C170.15 127.554 169.802 127.336 169.467 127.104C168.27 126.514 167.548 125.405 166.651 124.493C166.097 123.969 165.659 123.334 165.364 122.63C165.453 121.232 165.703 119.853 165.672 118.437C165.593 114.826 164.095 112.041 161.053 110.093C160.736 109.886 160.38 109.739 160.202 109.374C160.039 108.796 159.981 108.194 160.033 107.596Z" fill="#F1BC55"/>
<path d="M2.34155 121.7C4.77833 120.027 7.2068 118.344 9.65186 116.683C19.6184 109.919 29.5885 103.165 39.562 96.4186C39.6806 96.3543 39.8063 96.3042 39.9367 96.2695C40.4626 96.4973 40.4481 96.9735 40.4108 97.4125C39.9587 102.611 38.1981 107.61 35.2929 111.944C35.155 112.184 34.9556 112.382 34.7153 112.519C34.2681 112.691 33.9493 112.395 33.5891 112.221C33.2682 112.068 32.9038 111.681 32.587 111.954C32.2702 112.227 32.587 112.652 32.6346 113.008C32.705 113.511 33.0963 113.919 33.0818 114.457C33.0094 114.934 32.6678 115.244 32.3717 115.569C30.5808 117.519 28.5396 119.223 26.3015 120.636C26.0409 120.805 25.7402 120.902 25.4299 120.918C25.3315 120.934 25.234 120.956 25.138 120.984C24.7288 121.489 24.2117 121.896 23.6246 122.175C18.8815 124.5 13.863 125.471 8.60638 125.324C7.05363 125.117 5.75968 124.258 4.36634 123.649C3.48852 123.208 2.67695 122.7 2.34155 121.7Z" fill="#FB706D"/>
<path d="M69.9524 82.411L58.7726 82.4214C57.5863 79.1602 56.4435 75.8867 55.7768 72.4682C54.9487 68.269 54.5347 64.043 54.9736 59.7631C54.8348 59.2827 55.1371 59.0757 55.5036 58.9038C56.7477 58.298 57.7971 57.3554 58.5325 56.183C59.1535 55.2471 59.4248 55.2699 59.9072 56.27C60.6595 57.8301 61.8934 59.107 63.4267 59.9122C63.7601 60.0944 64.0333 60.2621 64.2279 59.7548C64.642 58.6636 65.1803 57.6159 65.5633 56.5123C65.8407 55.711 65.7476 54.8889 65.5136 54.0752C65.3645 53.5596 65.4059 52.9198 66.1347 53.2076C67.4908 53.746 68.8738 53.8123 70.2857 53.8288C70.3724 53.8303 70.4578 53.8494 70.5368 53.885C70.6159 53.9206 70.6868 53.9719 70.7453 54.0359C71.4686 55.2393 72.1031 56.494 72.6438 57.7898C72.7121 58.2205 72.4534 58.5062 72.1925 58.7816C69.7992 61.3057 68.9959 64.4509 68.8303 67.7783C68.6022 72.189 68.989 76.6099 69.9793 80.914C70.0932 81.4047 70.3085 81.9203 69.9524 82.411Z" fill="#743689"/>
<path d="M111.382 43.7472C114.168 45.0869 116.831 46.6129 119.063 48.7953C119.04 49.3544 118.555 49.3688 118.199 49.4889C117.409 49.7179 116.604 49.8984 115.792 50.0294C114.747 50.2287 113.729 50.5512 112.761 50.9901C110.846 51.8846 109.525 53.2678 109.034 55.3653C108.846 56.1692 108.501 56.9278 108.017 57.5973C107.862 57.8189 107.724 58.0715 107.396 58.0653C107.047 57.8914 106.86 57.5352 106.568 57.3054C105.674 56.6221 104.8 56.2183 103.639 56.8644C102.208 57.6574 100.533 57.3427 99.3325 56.2432C99.0426 55.9485 98.7312 55.6758 98.4008 55.4274C97.0737 54.537 96.1358 54.5991 94.962 55.6717C94.6941 55.9393 94.4114 56.1916 94.1152 56.4274C93.5873 56.8105 93.0324 56.8871 92.4776 56.5207C91.8892 56.1659 91.2645 55.875 90.6143 55.653C90.2747 55.4108 90.2002 55.0464 90.1692 54.6654C90.0305 52.6714 89.5005 50.8452 87.9456 49.4537C87.8779 49.4004 87.8286 49.3272 87.8045 49.2444C87.7803 49.1616 87.7826 49.0734 87.811 48.992C90.1257 44.4015 94.1545 42.4987 98.9908 41.9189C100.254 41.7678 101.537 41.6187 102.806 41.8299C103.562 41.9541 103.79 41.6228 103.819 40.9789C104.659 41.9417 105.916 41.6891 106.964 42.0431C107.448 42.1819 107.941 42.2999 108.423 42.4449C108.521 42.4693 108.617 42.4997 108.711 42.536C109.591 42.9356 110.622 43.0412 111.382 43.7472Z" fill="#B9347C"/>
<path d="M87.7945 48.9837C89.604 50.3751 90.2789 52.3091 90.4301 54.4935C90.4528 54.831 90.43 55.1768 90.6205 55.4812C90.958 55.8353 90.958 56.2928 91.0098 56.7339C91.3389 59.5271 91.6453 62.3244 91.7468 65.1384C91.6639 66.0266 91.1257 66.7348 90.7841 67.5175C89.2872 70.938 88.9456 74.4829 89.6205 78.1416C89.7054 78.6013 89.9145 79.0796 89.6019 79.5413C89.2251 79.7774 88.869 79.6013 88.5212 79.4709C87.3742 79.0381 86.4509 78.2596 85.5172 77.5018C85.4167 77.4356 85.3375 77.3417 85.2894 77.2315C85.2412 77.1212 85.2261 76.9993 85.2459 76.8806C82.8299 71.4433 80.5732 65.9418 78.7057 60.287C78.2199 58.8183 77.7368 57.3488 77.2565 55.8787C76.4284 53.3402 76.9543 51.5305 79.006 49.8264C79.1902 49.6732 79.3683 49.5117 79.5484 49.3543C80.743 48.0354 83.9727 47.2651 85.2066 48.0022C86.1185 48.1809 86.9935 48.5127 87.7945 48.9837Z" fill="#F66F17"/>
<path d="M85.2459 76.8743C86.4215 78.0726 87.8505 78.9924 89.428 79.5661C90.5191 80.2059 90.6702 81.3075 90.8193 82.4069L69.9524 82.4193C69.3313 79.5205 68.675 76.599 68.557 73.638C68.3996 69.7164 68.1325 65.7512 69.7433 61.9827C70.4285 60.378 71.4596 59.0446 72.6417 57.8022C73.8963 60.4692 75.1158 63.1547 76.4139 65.7988C78.2743 69.6413 80.8615 73.0867 84.0327 75.9446C84.4157 76.2759 84.7491 76.6838 85.2459 76.8743Z" fill="#9A6194"/>
<path d="M210.395 115.344C210.435 117.621 209.36 119.381 207.716 120.781C205.496 122.687 202.891 124.093 200.079 124.901C199.363 124.423 198.642 123.957 197.711 124.139C195.735 123.419 193.632 123.578 191.595 123.266C186.456 122.477 181.705 120.795 177.641 117.468C174.096 114.557 171.674 110.842 169.941 106.629C168.27 102.56 167.608 98.2821 167.123 93.9587C167.092 93.5462 167.027 93.137 166.929 92.735C167.471 92.0145 168.227 91.9855 169.024 92.0849C169.312 92.793 169.231 93.5633 169.395 94.2983C170.488 99.3443 172.32 104.074 175.686 108.053C181.036 114.381 187.821 117.822 196.199 117.93C200.177 118.015 204.108 117.054 207.598 115.145C207.862 114.981 208.152 114.864 208.456 114.799C209.12 114.911 209.77 115.093 210.395 115.344Z" fill="#F1BC55"/>
<path d="M8.49252 125.036C13.8754 125.148 19.0388 124.187 23.8689 121.702C24.2643 121.495 24.6577 121.396 24.6722 120.804C24.6825 120.417 24.9931 120.429 25.2436 120.704C24.9724 121.651 25.1773 122.524 25.6784 123.338C25.9289 123.752 26.3222 124.003 26.8046 123.787C27.287 123.572 27.2725 123.079 27.169 122.632C27.0344 122.046 26.5479 121.769 26.1007 121.452C25.7922 121.232 25.2726 121.232 25.2436 120.7C26.5189 120.559 27.3346 119.58 28.2829 118.909C30.0349 117.676 31.593 116.188 32.9059 114.495C32.9349 114.478 32.968 114.445 32.9949 114.449C34.8354 114.642 34.9203 114.542 34.4441 112.737C34.4345 112.687 34.4355 112.635 34.4469 112.585C34.4583 112.535 34.4799 112.488 34.5104 112.447C36.3985 109.975 37.6966 107.2 38.7132 104.274C39.4585 102.131 39.7649 99.8971 40.1169 97.6733C40.1914 97.195 40.1996 96.7105 39.9346 96.2716C42.5577 94.3273 45.2906 92.5445 48.0234 90.7617C48.334 90.9688 48.4272 91.3063 48.4893 91.6479C49.1265 95.1767 49.0963 98.7938 48.4003 102.311C48.3216 102.726 48.2326 103.125 47.8827 103.405C46.6715 103.854 45.3983 103.541 44.1561 103.726C43.653 103.664 43.4521 103.222 43.1395 102.916C42.6501 102.459 42.0567 102.129 41.4108 101.953C41.3218 102.85 41.7048 103.579 41.7773 104.349C41.7773 104.97 41.3114 105.297 40.9491 105.682C40.1769 106.498 39.4875 107.366 39.1189 108.449C38.4751 110.799 38.5517 113.056 39.9699 115.147C40.2822 115.556 40.5652 115.987 40.8166 116.437C40.5578 117.659 39.6924 118.507 38.9533 119.421C37.7836 120.098 36.8478 121.077 35.736 121.841C31.3097 124.864 26.4526 126.545 21.1091 127.047C17.3328 127.403 13.6932 126.879 10.0742 125.955C9.4904 125.806 8.7451 125.815 8.49252 125.036Z" fill="#F4596E"/>
<path d="M129.568 17.865C129.674 17.8572 129.782 17.8726 129.882 17.9102C129.983 17.9477 130.074 18.0064 130.149 18.0823C130.727 18.9396 131.657 19.0948 132.561 19.2129C133.666 19.3466 134.784 19.1292 135.758 18.5917C136.398 18.2542 137.048 17.927 137.781 17.8421C139.371 17.6578 140.487 18.8774 140.265 20.4531C140.058 21.8673 139.344 22.973 138.317 23.8779C137.149 24.9132 136.47 26.0872 136.371 27.6981C136.265 29.4146 135.336 30.2636 133.679 30.6176C132.968 30.7509 132.245 30.8113 131.522 30.7978C129.969 30.8102 128.706 31.2906 127.663 32.5826C126.081 34.5434 124.118 35.9846 121.386 35.7402C119.808 35.5994 118.444 35.0404 117.614 33.5744C117.485 33.1603 117.676 32.8352 117.914 32.5391C120.365 29.4208 123.089 26.5924 125.963 24.5073C125.328 24.9215 124.317 25.5758 123.369 26.315C122.421 27.0542 121.477 27.7996 120.586 28.6133C119.696 29.4271 118.825 30.3505 117.93 31.2057C117.667 31.4583 117.502 31.9904 116.947 31.7005C116.235 30.4209 116.922 29.3132 117.361 28.1806C117.576 27.9111 117.831 27.6759 118.117 27.4828C118.491 27.2036 118.794 26.8388 118.999 26.4187C119.204 25.9987 119.305 25.5357 119.295 25.0685C119.295 24.6896 119.295 24.3106 119.315 23.9338C119.45 22.1345 120.479 20.9832 122.261 20.9584C123.804 20.9377 124.953 20.4511 125.887 19.1984C126.785 17.9871 127.971 17.2728 129.568 17.865Z" fill="#7FE604"/>
<path d="M99.7259 9.63857L100.542 9.79589C101.647 10.2224 102.038 11.2184 102.229 12.2164C102.527 13.7735 103.214 14.9081 104.655 15.6929C106.221 16.546 106.703 18.0927 105.852 19.5545C104.916 21.1675 104.724 22.6894 105.717 24.3024C105.643 25.5882 105.494 26.843 104.351 27.7002C103.893 27.6733 103.829 27.2861 103.746 26.9713C102.73 23.0745 101.092 19.4406 99.0903 15.96C99.0447 15.8792 98.9516 15.7944 98.9661 15.7737C100.208 17.7614 101.02 19.9935 101.738 22.2628C102.242 23.8024 102.657 25.3697 102.98 26.9569C103.103 27.4606 103.137 27.9819 103.082 28.4974C103.032 28.7548 102.9 28.989 102.705 29.1649C102.511 29.3408 102.264 29.4487 102.003 29.4726C100.028 29.7997 98.2352 29.4726 96.7901 27.9508C95.635 26.7486 94.8508 25.2389 94.5314 23.6025C94.2188 22.0393 93.4673 20.8777 92.0242 20.1592C91.431 19.881 90.8642 19.5497 90.3307 19.1694C88.8214 18.0451 88.4488 16.927 89.0326 15.1276C89.2231 14.5396 89.4777 13.9784 89.5564 13.3511C89.6325 12.6293 89.5101 11.9005 89.2024 11.2433C88.6556 10.0058 88.5383 8.62101 88.8691 7.30917C89.3328 5.42287 91.0429 4.80999 92.5956 5.97573C93.076 6.37182 93.4947 6.83728 93.8378 7.35679C94.9186 8.82483 96.2705 9.79383 98.2001 9.60541C98.7135 9.55571 99.2186 9.83942 99.7259 9.63857Z" fill="#A4E253"/>
<path d="M208.576 114.89C204.085 117.692 199.127 118.605 193.959 118.153C188.787 117.728 183.862 115.759 179.821 112.503C176.616 109.946 174.024 106.885 172.161 103.185C170.604 100.015 169.499 96.6422 168.875 93.1657C168.837 92.9972 168.833 92.8229 168.862 92.6527C168.892 92.4825 168.954 92.3198 169.047 92.1739C169.186 91.9502 169.359 91.8509 169.604 92.0269C171.97 98.2117 175.258 103.794 180.398 108.101C183.926 111.064 188.245 112.928 192.82 113.461C197.185 114.014 201.456 113.484 205.681 112.408C206.477 112.183 207.314 112.145 208.126 112.296C208.184 113.178 208.422 114.029 208.576 114.89Z" fill="#FDDF66"/>
<path d="M70.7474 54.04C69.0311 54.1601 67.323 54.2118 65.7082 53.2262C65.5488 53.9799 66.0084 54.4541 66.0457 55.0359C66.1388 56.4646 65.4432 57.6096 64.9049 58.8127C64.642 59.3986 64.6586 60.3428 64.0478 60.4816C63.4371 60.6203 62.876 59.877 62.3004 59.5208C60.8512 58.6243 59.9547 57.2432 59.3026 55.5225C58.4869 56.8001 57.6753 57.912 56.5097 58.7216C56.0025 59.0756 55.1826 58.9845 54.9715 59.7568C54.6733 59.1833 54.1744 59.5498 53.7727 59.5229C53.2676 59.4773 52.7583 59.5105 51.9695 59.5105C54.0025 57.1169 54.5036 54.2719 55.7872 51.7893C56.3006 50.7995 56.9383 49.8905 57.9362 49.3418C58.7643 48.8822 58.845 48.2175 58.6318 47.4224C58.5669 47.2268 58.4887 47.0359 58.3979 46.8509C57.6567 45.0682 57.8595 44.7307 59.8057 44.4242C60.0955 44.3787 60.2694 44.4242 60.3833 44.6851C60.4371 44.8114 60.5117 44.9294 60.5572 45.0599C61.1183 46.6729 61.7767 47.9152 63.9443 47.851C65.5364 47.8034 66.9442 48.9484 68.3644 49.7145C70.0662 50.6297 71.7826 51.4994 73.8819 51.6278C73.1324 52.9281 71.8302 53.3422 70.7474 54.04Z" fill="#548178"/>
<path d="M160.358 82.4111H143.604C143.354 82.0777 143.569 81.8168 143.766 81.5828C147.542 77.1953 151.965 73.8761 157.906 73.0935C158.526 73.0406 159.148 73.0213 159.77 73.0355C160.925 73.1247 162.058 73.4045 163.122 73.8638C163.407 74.0273 163.761 74.0232 164.039 74.2137C163.975 74.5574 164.173 74.7686 164.384 75.0047C165.848 76.6611 165.85 77.9035 164.426 79.6096C164.233 79.8436 164.068 80.1003 163.89 80.3467C162.956 81.4648 161.708 82.0239 160.358 82.4111Z" fill="#6FC604"/>
<path d="M85.2004 47.996C83.1446 47.7352 81.3144 48.4205 79.5422 49.3481C77.142 45.657 74.7418 41.9658 72.3416 38.2747C71.8571 37.5293 72.412 36.0695 73.2629 35.8045C73.7163 35.6658 73.7929 36.0447 73.9482 36.2662C74.7514 37.4237 75.532 38.5998 76.3228 39.7676C76.5372 40.1282 76.8225 40.4416 77.1613 40.689C76.476 39.0159 75.7701 37.3512 75.1221 35.6637C75.0144 35.38 74.3953 34.8355 75.1365 34.7195C75.7266 34.6326 76.563 33.5952 77.0495 34.9846C77.5919 36.5396 78.2482 38.0573 78.8548 39.5937C79.4904 40.4612 79.6271 41.5359 80.0639 42.4925C80.1178 42.6188 80.2709 42.36 80.1509 42.4407C80.095 42.4821 80.0598 42.4883 80.0515 42.4572C79.7223 41.3661 79.1281 40.3536 79.0681 39.1816C78.5526 37.4672 78.0329 35.7548 77.5257 34.0383C77.4035 33.6242 76.977 33.1169 77.7679 32.8746C78.5588 32.6323 79.4925 32.9243 79.6747 33.5289C80.3083 35.6368 80.9169 37.7529 81.538 39.8649C81.6095 40.1565 81.7517 40.426 81.9521 40.6496C81.509 38.7468 81.0494 36.8481 80.6312 34.939C80.5567 34.5912 80.0681 34.0404 80.8879 33.9037C81.5504 33.794 82.066 33.8229 82.1612 34.7506C82.3112 36.0184 82.5759 37.27 82.952 38.49C82.8734 37.2001 82.8175 35.906 82.7077 34.6201C82.6518 33.9824 82.7926 33.6304 83.5131 33.6531C84.0969 33.6697 84.5483 33.6366 84.5835 34.4814C84.7615 38.9828 84.9913 43.4905 85.2004 47.996Z" fill="#57AF3C"/>
<path d="M129.568 17.865C127.704 17.6248 126.547 18.6497 125.566 20.0287C124.945 20.888 124.071 21.182 123.056 21.1986C120.437 21.24 119.549 22.0786 119.63 24.6751C119.68 26.3605 118.963 27.4724 117.535 28.224C117.047 28.4771 116.624 28.8403 116.301 29.2848C115.978 29.7294 115.762 30.2431 115.672 30.7854C115.57 31.2906 115.311 32.096 114.719 31.8889C114.127 31.6819 114.601 30.9717 114.748 30.5203C115.858 27.0894 116.852 23.6253 117.647 20.1053C117.693 19.8006 117.821 19.5143 118.017 19.2771C119.116 18.4439 120.354 17.8129 121.673 17.4135C123.644 16.8069 125.251 15.6619 126.228 13.7756C126.795 12.6844 126.709 11.9348 125.769 11.1149C124.829 10.2949 124.371 9.35694 124.485 8.11667C124.526 7.63358 124.455 7.1476 124.278 6.69628C123.835 5.5264 122.926 5.14535 121.794 5.6982C120.121 6.51017 118.493 7.40863 116.914 8.38995C115.411 9.33827 114.883 10.6283 115.554 12.2889C116.191 13.8646 115.893 15.1649 114.901 16.43C114.485 16.9357 114.107 17.4721 113.771 18.0347C113.553 18.3866 113.377 18.7625 113.245 19.1549C113.024 19.9003 112.841 20.712 113.467 21.2959C114.092 21.8798 114.893 21.5568 115.605 21.2772C115.976 21.1323 116.291 20.7741 116.75 20.9853C116.812 21.071 116.85 21.1714 116.86 21.2765C116.871 21.3815 116.854 21.4875 116.81 21.5837C116.576 21.9274 116.189 22.1324 115.945 22.4596C115.506 23.0331 114.951 23.2878 114.235 23.0931C113.748 22.9544 113.46 23.0703 113.336 23.6046C113.251 23.9752 113.048 24.3583 112.605 24.3666C112.117 24.3666 112.069 23.9172 111.93 23.5735C111.816 23.1036 111.826 22.6118 111.959 22.1469C111.993 21.9067 112.332 21.8612 112.216 21.4615C111.678 19.6249 111.98 17.9312 113.392 16.5563C114.585 15.3968 114.87 13.9826 114.405 12.498C113.939 11.0134 113.802 9.63441 114.937 8.37964C115.013 8.29267 114.988 8.11457 115.028 7.97998C115.121 7.69174 115.298 7.43795 115.537 7.25113C115.862 7.04407 116.125 6.74383 116.527 6.67343C117.493 6.54505 118.034 5.70648 118.829 5.28408C119.518 4.91552 120.071 4.30683 120.81 4.00038C123.257 2.98166 125.588 4.57597 125.524 7.22424C125.477 9.18922 125.744 9.59095 127.564 10.2722C129.199 10.8933 129.826 11.8189 129.795 13.5685C129.765 14.6384 129.507 15.6895 129.038 16.6515C128.719 17.3535 128.698 17.7573 129.568 17.865Z" fill="#99DC39"/>
<path d="M117.732 33.3942C119.595 35.7236 122.493 36.1792 124.978 34.5745C126.087 33.8816 127.056 32.9844 127.831 31.9304C128.659 30.7812 129.93 30.5928 131.22 30.5079C132.007 30.4561 132.793 30.4147 133.576 30.3546C135.29 30.2221 136.085 28.868 136.135 27.402C136.133 26.785 136.266 26.175 136.522 25.6138C136.779 25.0527 137.154 24.5538 137.621 24.1512C138.694 23.1946 139.673 22.1841 139.934 20.6208C140.232 18.8443 139.124 17.722 137.379 18.2044C136.282 18.5088 135.373 19.2605 134.23 19.4696C132.748 19.7388 131.441 19.304 130.191 18.5938C130.046 18.511 129.534 18.2977 130.151 18.0823C132.038 19.3433 133.866 19.1011 135.632 17.8359C137.398 16.5708 140.65 17.5378 141.317 19.3185C141.702 20.3538 141.453 21.8301 140.522 22.3519C139.073 23.1635 138.408 24.2402 138.878 25.8967C138.897 26.0341 138.897 26.1734 138.878 26.3108C139.002 27.0134 138.996 27.7329 138.859 28.4331C138.594 30.601 137.112 31.92 134.984 31.9531C134.052 31.9697 133.141 31.7978 132.222 31.7461C130.723 31.6736 130.191 32.0856 129.768 33.5143C129.7 33.7462 129.65 33.9823 129.603 34.2183C129.04 37.0447 127.429 38.4196 124.551 38.5521C123.242 38.5952 121.935 38.4346 120.676 38.0758C118.398 37.4692 117.62 37.7135 116.228 39.5521C115.255 40.84 113.951 41.4923 112.374 41.6869C112.22 41.0657 112.682 40.6703 112.916 40.2044C114.034 38.0497 115.336 35.9956 116.808 34.0651C117.023 33.7628 117.199 33.3093 117.732 33.3942Z" fill="#6FC604"/>
<path d="M164.02 74.2179C163.751 74.3235 163.48 74.4684 163.246 74.1537C162.933 73.8182 162.952 73.3958 162.956 72.9838C162.965 71.6379 162.733 70.3012 162.271 69.0373C161.701 67.476 161.714 65.9604 162.109 64.3826C162.42 63.1403 162.625 61.8979 162.455 60.608C162.001 57.1563 159.852 55.1126 156.877 53.7336C156.069 53.3502 155.227 53.0431 154.362 52.8163C152.617 52.3712 151.049 51.4933 149.439 50.7126C148.178 50.0915 146.894 49.6774 145.468 49.9962C144.956 49.9217 144.453 49.8244 144.128 49.3585C143.934 48.7373 144.366 48.3232 144.64 47.8573C145.261 46.822 145.19 46.6377 144.039 46.468C142.151 46.1884 140.34 46.5673 138.576 47.2113C138.027 47.4183 137.505 47.6979 136.957 47.8966C136.408 48.0954 135.973 48.0499 136.147 47.2755C140.097 43.7928 144.749 43.2813 149.316 45.8261C150.432 46.4412 151.474 47.1818 152.422 48.0333C153.831 49.3055 155.458 50.3128 157.225 51.0067C157.868 51.2507 158.495 51.5336 159.103 51.8535C163.529 54.2678 165.095 57.7981 163.726 62.6516C163.268 64.2728 163.312 65.6415 164.032 67.2069C165.09 69.4721 165.028 71.8802 164.02 74.2179Z" fill="#397304"/>
<path d="M116.535 6.67559C116.349 7.02758 116.121 7.3154 115.678 7.35267C114.5 6.21592 113.899 4.67333 112.904 3.40613C112.628 3.05621 112.407 2.66073 112.117 2.31908C111.233 1.27344 110.235 1.27137 109.324 2.31908C108.91 2.7891 108.657 3.35437 108.311 3.87616C108.077 4.23854 107.774 4.55098 107.419 4.79548C107.063 5.03999 106.663 5.21168 106.241 5.30069C104.97 5.58643 104.575 6.0399 104.531 7.33194C104.457 9.58059 105.411 11.3965 106.98 12.9225C107.933 13.8501 108.616 14.9537 109.222 16.1195C109.369 16.4031 109.465 16.6909 109.305 17.0056C108.463 19.4903 108.011 22.0724 107.494 24.6358C107.256 25.816 107.042 27.0045 106.873 28.1972C106.821 28.5409 106.767 28.8846 106.43 29.0875C105.91 29.1207 105.945 28.7065 105.902 28.3939C105.854 28.02 105.903 27.6403 106.042 27.2902C106.469 26.1866 106.042 25.2341 105.548 24.292C104.355 22.8654 104.512 21.3933 105.384 19.888C106.438 18.0617 106.084 16.6205 104.187 15.7157C103.62 15.465 103.128 15.0704 102.76 14.5711C102.391 14.0717 102.16 13.4849 102.088 12.8686C101.908 11.6263 101.337 10.6842 100.548 9.80006C100.703 8.4314 100.769 7.04826 101.343 5.76243C102.036 4.20535 103.105 3.49925 104.786 3.76222C106.467 4.02518 107.477 3.5449 108.206 1.93813C109.351 -0.573485 112.518 -0.650154 114.055 1.77656C115.02 3.33537 115.85 4.97444 116.535 6.67559Z" fill="#70C704"/>
<path d="M136.155 47.2692C136.234 47.7309 136.393 47.9712 136.909 47.6606C138.646 46.6087 140.596 46.2753 142.569 46.0269C143.397 45.9213 144.207 46.1718 145.008 46.294C145.691 46.3975 145.484 46.998 145.257 47.4514C144.94 48.0871 144.333 48.5654 144.221 49.315C143.894 49.5821 143.563 49.4019 143.244 49.315C141.959 48.9345 140.643 48.667 139.311 48.5157C137.019 48.2404 134.701 48.2815 132.421 48.6379C128.553 49.288 125.013 50.7084 121.889 53.1207C121.013 53.7936 120.232 54.5701 119.377 55.2699C119.117 55.477 118.934 55.8124 118.535 55.8083C117.56 55.2782 116.558 55.0691 115.456 55.4066C114.835 55.5991 114.493 55.2409 114.373 54.6343C114.059 53.0565 114.928 51.752 116.52 51.4311C117.33 51.2675 118.177 51.282 118.967 51.0542C120.433 50.6401 121.572 49.8989 121.998 48.288C122.516 46.3354 124.207 45.8695 125.866 45.7618C129.151 45.5548 132.392 45.9026 135.429 47.3334C135.529 47.3625 135.637 47.3506 135.729 47.3003L136.155 47.2692Z" fill="#4C931E"/>
<path d="M169.61 92.0248L169.053 92.1718L166.964 92.7433C166.956 92.7604 166.944 92.7754 166.929 92.7871C166.913 92.7987 166.896 92.8067 166.877 92.8103C166.858 92.8139 166.839 92.8131 166.821 92.808C166.802 92.8028 166.786 92.7934 166.771 92.7805L162.037 94.0229C161.38 93.3893 161.563 92.6542 161.786 91.9192C161.977 91.298 162.004 90.8155 161.165 90.6457C160.823 90.5774 160.507 90.2834 160.227 90.037C159.159 89.1011 159.329 87.9085 160.641 87.3722C162.001 86.8131 163.393 86.3369 164.772 85.8151C165.123 85.6847 165.513 85.635 165.759 85.3058C166.972 85.1919 168.024 84.5748 169.15 84.1918C170.119 83.8625 171.045 83.7342 171.842 84.492C172.639 85.2498 172.682 86.2706 172.332 87.2583C171.869 88.5711 171.014 89.714 170.637 91.0764C170.513 91.5423 170.038 91.7949 169.61 92.0248Z" fill="#30665A"/>
<path d="M135.729 47.3002C134.694 47.5528 133.826 46.9213 132.888 46.7122C130.613 46.1815 128.278 45.9477 125.942 46.0165C123.974 46.089 122.688 47.002 122.145 48.8262C121.678 50.3978 120.404 50.9755 119.04 51.3648C118.158 51.6132 117.216 51.6464 116.305 51.8037C115.075 52.0108 114.152 53.8743 114.709 54.9655C114.951 55.4438 115.257 55.1601 115.58 55.0814C116.678 54.8081 117.756 54.6798 118.572 55.7296C118.651 56.3631 118.243 56.5743 117.744 56.6986C116.607 56.1416 115.467 56.0774 114.34 56.7151C113.541 56.9119 113.144 57.6966 112.434 58.0238C111.005 58.5455 109.702 59.3616 108.61 60.4194C107.715 60.291 106.866 60.0695 106.272 59.3075C106.37 58.587 106.842 58.1873 107.469 57.9223C108.011 57.21 108.504 56.4729 108.697 55.5763C109.369 52.5491 111.413 50.9175 114.262 50.1245C115.152 49.876 116.067 49.7104 116.97 49.5199C117.703 49.3584 118.46 49.2714 119.083 48.7952C119.3 48.686 119.492 48.5327 119.646 48.3451C119.8 48.1576 119.913 47.9399 119.978 47.7061C120.663 45.4056 122.4 44.4055 124.593 44.1633C128.601 43.7202 132.205 44.8838 135.46 47.2112C135.545 47.253 135.636 47.283 135.729 47.3002Z" fill="#397304"/>
<path d="M47.8123 103.309C48.4975 100.375 48.8682 97.4186 48.4644 94.4059C48.3009 93.1925 48.1704 91.9771 48.0255 90.7617L51.338 88.5027C51.8225 88.5834 51.9861 88.9768 52.1393 89.3557C53.4394 92.5527 54.3048 95.847 54.3214 99.3256C54.5843 101.226 54.0564 102.744 52.251 103.674C51.9219 103.846 51.7169 104.2 51.4333 104.45C51.278 104.589 51.0876 104.759 50.8971 104.724C49.7584 104.525 48.6694 104.165 47.8123 103.309Z" fill="#EC2E59"/>
<path d="M103.833 38.5997C103.153 38.1644 102.58 37.5805 102.158 36.8919C101.736 36.2033 101.476 35.428 101.397 34.6242C101.206 33.0092 100.384 32.0898 98.7859 31.7254C96.935 31.3113 95.14 30.7895 93.61 29.5886C93.3212 29.4063 93.0748 29.1641 92.8875 28.8784C92.8943 28.6384 92.8208 28.4029 92.6786 28.2094C92.5365 28.0159 92.3339 27.8753 92.1028 27.8099C91.3844 26.4309 91.606 25.0519 92.1028 23.6688C92.8047 22.9068 92.7985 22.4451 92.0739 21.5982C91.2457 20.4966 89.8793 20.3683 88.7758 19.772C87.7717 19.2253 86.8484 18.6622 86.4529 17.5192C86.6413 16.898 85.9581 16.3638 86.2459 15.7261L86.2769 15.3927C87.132 14.9289 86.9953 14.0758 87.0926 13.3221C87.3121 12.4546 88.1092 11.912 88.3659 11.0631C89.0802 11.0631 89.2685 11.5393 89.3617 12.1253C89.5932 13.3941 89.3279 14.7035 88.6206 15.782C88.1775 16.457 88.2872 16.9332 88.7262 17.5378C89.4653 18.5565 90.3224 19.3786 91.5004 19.8797C93.1794 20.594 94.0304 21.9088 94.4713 23.6812C95.022 25.8926 96.1069 27.9217 98.1979 29.0067C99.5064 29.6838 101.034 30.3174 102.546 29.2531C102.653 29.1627 102.79 29.1162 102.93 29.1227C103.07 29.1293 103.203 29.1884 103.301 29.2883C103.46 29.5167 103.555 29.7833 103.577 30.0607C103.927 32.4812 104.198 34.912 104.183 37.3636C104.204 37.8046 104.252 38.2788 103.833 38.5997Z" fill="#99DC38"/>
<path d="M35.6222 131.83C27.8356 134.61 20.0657 134.635 12.3123 131.705C12.2136 131.677 12.1123 131.66 12.01 131.654C7.83828 129.914 4.0599 127.573 0.861238 124.353C-0.188421 123.295 -0.451353 123.502 1.06827 122.551C1.55687 122.469 1.8281 122.816 2.11794 123.098C7.28687 128.109 13.4447 131.046 20.5915 131.91C25.0466 132.434 29.5623 131.972 33.8189 130.556C34.4648 130.349 35.0818 129.995 35.8022 130.063C36.3571 130.712 36.2163 131.293 35.6222 131.83Z" fill="#306659"/>
<path d="M35.823 130.173C32.0823 131.686 28.0817 132.451 24.0469 132.426C17.5668 132.341 11.5794 130.562 6.20065 126.835C4.34978 125.558 2.72041 124.038 1.06207 122.543C1.43683 122.19 1.86878 121.903 2.3395 121.694C3.01236 122.228 3.50094 122.976 4.29181 123.373C5.47397 124.137 6.60642 124.978 7.79065 125.736C12.6249 128.842 17.8794 130.498 23.6681 130.54C27.633 130.603 31.5719 129.888 35.2619 128.436C35.6098 128.297 35.9555 128.111 36.353 128.239C36.7526 128.564 36.4958 128.937 36.4337 129.297C36.2805 129.633 36.2288 130.026 35.823 130.173Z" fill="#94A56D"/>
<path d="M103.833 38.5998C103.953 35.4661 103.695 32.3294 103.065 29.2573C102.742 29.0502 103.076 28.6589 102.858 28.4167C102.705 25.9175 101.862 23.5839 101.105 21.2338C100.389 19.0845 99.4886 17.0013 98.4133 15.0076C100.192 16.664 102.14 20.9543 104.235 27.6381C104.786 28.0647 104.765 28.7314 104.902 29.3132C105.481 31.7979 105.798 34.3116 106.225 36.8128C106.457 36.4319 106.363 35.8707 106.862 35.6264C106.947 35.6589 107.023 35.7111 107.084 35.7788C107.145 35.8465 107.189 35.9277 107.212 36.0157C107.442 37.8254 107.305 39.6392 107.295 41.451C107.302 41.6063 107.273 41.7611 107.21 41.9031C107.147 42.0452 107.051 42.1704 106.931 42.2688C106.194 42.1508 105.457 41.9499 104.717 41.9375C103.978 41.9251 103.761 41.6125 103.802 40.9644C103.813 40.1775 103.824 39.3894 103.833 38.5998Z" fill="#397304"/>
<path d="M117.732 33.3942C115.997 35.3778 114.663 37.6307 113.355 39.9021C113.015 40.4922 112.696 41.0947 112.369 41.691L111.382 43.7471L108.616 42.7346C111.017 39.0614 113.566 35.4876 116.444 32.1747C116.522 32.0613 116.622 31.9646 116.738 31.8903C116.854 31.816 116.983 31.7655 117.119 31.7419C119.99 28.5408 123.17 25.7207 127.141 23.853C126.727 24.1885 126.313 24.528 125.899 24.8634C125.45 25.2299 124.984 25.5778 124.549 25.9609C122.015 28.1929 119.57 30.5182 117.732 33.3942Z" fill="#5DAD02"/>
<path d="M102.854 28.4167C103.15 28.6403 103.043 28.9653 103.061 29.2573C102.305 30.0979 101.426 30.2263 100.345 29.9178C99.407 29.6486 98.4588 29.6362 97.5975 28.9467C95.7487 27.4662 94.6597 25.5965 94.1256 23.3396C93.6453 21.3125 92.2064 20.2565 90.3411 19.6353C90.1485 19.5732 89.8731 19.5215 89.8007 19.3786C89.3204 18.451 88.4736 17.8029 87.9726 16.8939C87.8649 16.6993 87.6889 16.4943 87.9332 16.2479C89.0926 15.0821 89.2148 13.6099 89.1506 12.0818C89.1299 11.5497 88.7365 11.3364 88.3825 11.0631C88.5564 10.3343 88.3825 9.67373 88.0616 9.01115C86.8898 6.60721 87.9643 4.93833 90.5999 4.82652C92.43 4.74784 93.5501 5.65479 94.3782 7.09384C95.2395 8.59294 96.3326 9.65309 98.2207 9.38391C98.7569 9.30937 99.2103 9.61788 99.7217 9.63445C97.2497 10.2039 94.9227 9.58059 93.6391 7.59076C93.3128 7.02236 92.8772 6.52413 92.3576 6.12477C90.9208 5.12468 89.544 5.71062 89.1506 7.43334C88.8317 8.73752 88.9782 10.1121 89.5647 11.3198C90.0926 12.4379 89.9476 13.5809 89.5149 14.7011C88.5895 17.0947 89.0264 18.2501 91.3058 19.4634C91.9083 19.7864 92.548 20.0639 93.0863 20.4718C94.0552 21.2069 94.5356 22.2298 94.7881 23.4348C95.2622 25.6856 96.3077 27.5946 98.3967 28.8018C99.5996 29.4975 100.862 29.2697 102.123 29.1662C102.318 29.1583 102.502 29.0762 102.638 28.9368C102.774 28.7974 102.851 28.6113 102.854 28.4167Z" fill="#99DD39"/>
<path d="M56.0729 92.1138C56.1826 93.6481 56.901 95.0706 56.901 96.6256C57.1619 98.1413 57.7643 99.63 57.2716 101.208C56.8575 101.775 56.3151 101.829 55.7085 101.562C55.0646 100.572 55.2944 99.4188 55.2075 98.3566C54.9569 95.0437 54.1143 91.915 52.9301 88.8444C52.7727 88.4303 52.4891 88.041 52.7479 87.571C53.9529 86.6558 53.9694 86.6496 54.5201 88.0348C55.0605 89.3952 55.5574 90.7617 56.0729 92.1138Z" fill="#32665A"/>
<path d="M52.7521 87.5792C53.9674 90.5029 54.9653 93.4886 55.34 96.6504C55.5576 98.2485 55.6627 99.8599 55.6547 101.473C55.5139 102.094 54.9653 102.05 54.5243 102.123C54.1351 102.185 54.1226 101.868 54.1102 101.576C54.0957 100.86 54.1557 100.143 54.075 99.4271C53.9328 95.9356 53.1613 92.4985 51.7976 89.2812C51.7062 88.9877 51.5507 88.7182 51.3422 88.4923L52.7521 87.5792Z" fill="#94A46D"/>
<path d="M208.576 114.89C207.981 114.099 207.694 113.254 208.124 112.287C209.052 111.679 209.752 111.766 210.443 112.577C211.205 113.47 211.186 114.383 210.387 115.337C209.689 115.573 209.122 115.282 208.576 114.89Z" fill="#503C6A"/>
<path d="M197.837 124.034C198.913 123.469 199.53 124.088 200.071 124.901C200.317 126.577 200.176 126.96 199.085 127.581C198.284 127.562 197.829 127.049 197.45 126.427C196.853 125.45 196.982 124.657 197.837 124.034Z" fill="#503C69"/>
<path d="M160.358 82.411L163.877 80.3508C163.937 81.0755 163.525 81.7071 163.463 82.407L160.358 82.411Z" fill="#98DB38"/>
<path d="M87.1134 13.3263C87.5833 14.6991 87.3577 15.2788 86.2977 15.3969C86.371 14.6441 86.6536 13.9268 87.1134 13.3263Z" fill="#99DD39"/>
<path d="M92.0884 21.6106C92.7219 21.7058 92.9434 22.1179 92.9165 22.7101C92.8855 23.2132 92.8047 23.6936 92.1277 23.6791C92.4051 22.9855 92.2457 22.298 92.0884 21.6106Z" fill="#99DD39"/>
<path d="M79.068 39.1754L80.2482 42.6581L80.0246 42.7472C79.6326 41.6953 79.2426 40.6441 78.8548 39.5937C78.9293 39.4529 78.9977 39.3141 79.068 39.1754Z" fill="#B1D8AB"/>
<path d="M58.7685 82.4235C57.7602 82.8583 56.6981 82.5291 55.6754 82.6058C56.6898 82.2351 57.7416 82.5457 58.7685 82.4235Z" fill="#743689"/>
<path d="M92.1091 27.814C92.8937 27.7892 93.3699 27.9859 92.8937 28.8825C92.4879 28.6319 92.3099 28.2157 92.1091 27.814Z" fill="#99DD39"/>
<path d="M86.2666 15.7385C86.2935 16.0077 86.2459 16.3244 86.4736 16.5004C86.9767 16.8711 86.6641 17.192 86.4592 17.5357C86.1507 16.9622 85.985 16.3763 86.2666 15.7385Z" fill="#99DD39"/>
<path d="M138.855 28.429L138.874 26.3066C139.075 27.0008 139.068 27.7385 138.855 28.429Z" fill="#7FE604"/>
<path d="M54.0854 99.4271C54.3421 99.9427 54.2283 100.496 54.1972 101.021C54.1496 101.802 54.3193 102.109 55.1123 101.686C55.2779 101.597 55.5264 101.653 55.6589 101.479C56.1454 101.436 56.6526 101.514 57.1081 101.272C57.5077 101.048 57.9714 101.226 58.3813 101.065C58.5704 101.353 58.8633 101.557 59.1991 101.634C60.3875 101.821 61.3522 102.463 62.3046 103.14C63.0313 103.26 63.3853 103.862 63.7538 104.382C64.4826 105.417 65.1493 106.506 65.172 107.842C65.0064 108.925 64.9795 110.039 64.5012 111.055C63.8335 112.544 62.7096 113.781 61.2922 114.588C61.0148 114.747 60.5552 114.905 60.8285 115.339C61.1018 115.774 61.4372 115.449 61.7146 115.265C62.9961 114.408 63.7849 113.167 64.3294 111.766C64.5364 111.236 64.7434 110.73 65.3977 110.639C65.4717 110.629 65.5472 110.635 65.6187 110.656C65.6903 110.678 65.7561 110.716 65.8117 110.766L68.0891 111.043C69.4617 111.113 71.6646 112.7 72.0103 113.888C73.4968 116.228 73.7805 118.731 73.031 121.375C72.7308 122.835 71.824 123.897 70.6998 124.773C70.0332 125.291 69.7495 125.821 70.1594 126.608C70.2257 127.065 70.3665 127.521 70.1988 127.985C69.1843 128.481 68.1781 127.968 67.1699 127.935C66.3128 127.908 65.4702 127.641 64.6068 127.63C63.5924 127.618 63.4516 127.85 63.9567 128.682C64.9588 130.339 66.2672 131.67 68.0353 132.515C68.1562 132.573 68.2609 132.66 68.3398 132.768C68.4186 132.877 68.469 133.003 68.4866 133.136C67.8262 134.07 67.0705 134.894 66.0022 135.362C65.9584 135.335 65.9092 135.318 65.8581 135.312C65.8069 135.306 65.7551 135.311 65.7061 135.327C63.6255 136.362 61.6318 135.888 59.7478 134.853C59.0376 134.461 58.7126 134.629 58.373 135.198C57.6671 135.443 57.6795 136.352 57.0335 136.648C55.9301 137.414 54.8162 138.085 53.4125 138.269C50.2636 138.683 47.0214 136.569 45.9593 133.281C44.9718 130.241 46.3547 126.738 49.0938 125.274C49.6031 125.003 50.0689 124.959 50.543 125.26C54.044 127.432 58.4703 126.628 60.8512 122.361C60.3591 123.156 59.7099 123.842 58.9433 124.377C58.1767 124.913 57.3089 125.286 56.393 125.474C55.4771 125.662 54.5325 125.661 53.617 125.471C52.7015 125.281 51.8344 124.906 51.0689 124.369C47.7564 122.092 46.9738 117.611 49.2056 114.725C49.0483 114.973 48.6694 115.192 48.1353 115.079C47.5341 114.924 46.9188 114.829 46.2988 114.797C45.6777 114.797 45.0566 114.919 44.5908 114.925C45.4843 114.758 46.4059 114.825 47.2657 115.12C48.1311 115.437 48.392 115.861 48.0628 116.702C47.0276 119.358 47.4603 121.775 49.1684 123.997C49.6342 124.605 49.5493 124.968 48.9116 125.405C48.0276 126.013 47.2926 126.113 46.274 125.562C44.1851 124.429 41.9843 124.421 39.8084 125.456C39.4937 125.608 39.1707 125.941 38.7732 125.585C38.0155 123.957 38.0941 122.245 38.297 120.53C38.3453 120.045 38.5762 119.596 38.943 119.274C39.4748 118.335 40.0813 117.441 40.7566 116.6C41.3591 115.888 41.1707 115.383 40.5371 114.71C38.8519 112.904 38.3447 110.73 38.9389 108.316C39.1976 107.26 39.8995 106.484 40.5806 105.691C40.9491 105.26 41.506 104.985 41.6634 104.38C42.3756 104.018 43.0008 103.425 43.8911 103.539C45.1871 103.22 46.508 103.332 47.8247 103.332C48.6528 103.713 49.5824 103.879 50.3339 104.454C50.6962 104.732 51.0337 104.581 51.3194 104.247C51.5637 103.964 51.7914 103.626 52.1061 103.452C53.7024 102.552 54.398 101.249 54.0854 99.4271Z" fill="#9A6194"/>
<path d="M90.8192 82.3987C90.2458 81.5042 90.1505 80.3778 89.4259 79.5579C89.6495 78.6613 89.2562 77.8165 89.1382 76.9593C88.5957 73.0252 89.3763 69.3872 91.2209 65.9272C91.3206 65.71 91.4063 65.4866 91.4776 65.2584C93.5376 61.6287 96.5893 59.4919 100.794 59.0715C102.97 59.4422 105.142 59.8128 107.127 60.873C107.309 60.9703 107.502 61.051 107.678 61.1628C108.465 61.6618 108.467 62.0697 107.589 62.4404C106.113 63.0674 104.703 63.8379 103.378 64.7408C105.069 64.0472 106.916 63.8028 108.761 63.5875C109.421 63.5109 109.736 63.8629 109.612 64.5317C109.305 66.1881 108.951 67.8446 108.587 69.2319C109.291 67.7653 110.123 66.363 111.071 65.041C111.713 64.1134 112.053 64.0927 112.879 64.8506C114.717 66.536 116.264 68.4699 117.742 70.6295C117.257 68.3395 116.45 66.3455 115.05 64.5979C114.212 63.5523 114.402 63.1941 115.69 62.8814C117.286 62.4922 118.845 62.9332 120.421 62.9601C120.868 63.0802 121.249 63.2893 121.417 63.7511C123.005 69.0849 122.245 74.0895 119.261 78.7607C118.332 80.2101 117.191 81.5042 115.686 82.4049L90.8192 82.3987Z" fill="#F4596E"/>
<path d="M159.745 73.315C155.302 73.3005 151.521 74.9839 148.136 77.7626C146.706 78.9366 145.273 80.09 144.141 81.5683C143.934 81.8334 143.607 82.0156 143.604 82.409L141.741 82.4877L138.636 82.4069C138.203 82.1067 137.94 81.6615 137.642 81.2432C136.081 79.0526 134.209 77.2553 131.599 76.3463C130.332 75.9117 129.004 75.6878 127.665 75.6837C127.34 75.6837 126.976 75.8349 126.709 75.4995C126.612 75.3136 126.568 75.1052 126.581 74.8962C126.594 74.6873 126.663 74.4858 126.781 74.313C126.918 74.1912 127.088 74.1121 127.27 74.0852C127.978 74.0397 128.686 74.0728 129.394 74.0563C131.741 74.1702 133.893 74.9445 135.94 76.0502C137.652 76.9737 137.646 76.9799 137.967 75.0854C138.064 74.5097 138.195 73.9362 138.246 73.3564C138.333 72.3874 138.799 71.3997 138.145 70.4576C137.201 69.0869 136.22 67.7658 134.574 67.155C133.433 66.7618 132.232 66.5732 131.025 66.5981C129.884 66.5981 128.758 66.5504 127.671 66.1632C126.901 65.8878 126.178 66.1343 125.454 66.3517C125.094 66.4614 124.754 66.6519 124.363 66.6374C123.994 66.5442 123.783 66.3372 123.856 65.9293C124.27 65.4054 124.974 65.4385 125.566 65.0699C124.156 64.2272 122.667 63.5336 121.506 62.3782C120.386 61.2663 119.392 60.1006 119.531 58.3571C119.56 58.001 119.549 58.001 119.878 57.3736C120.253 57.5496 120.247 57.9037 120.293 58.2246C120.513 59.5615 121.247 60.7593 122.338 61.5624C124.038 62.8565 125.917 63.8972 127.916 64.6517C129.163 65.1635 130.502 65.413 131.849 65.3847C135.189 65.3971 136.176 65.8112 138.561 68.3104C138.525 66.662 138.353 65.0193 138.048 63.399C137.23 59.409 135.588 55.8103 132.853 52.75C132.731 52.6282 132.623 52.4928 132.532 52.3462C132.435 52.1702 132.286 51.9715 132.491 51.7955C132.696 51.6195 132.884 51.7437 133.066 51.8493C133.327 52.0178 133.564 52.2197 133.772 52.4498C137.122 55.8 139.118 59.8438 139.932 64.4902C139.974 64.8307 140.043 65.1671 140.139 65.4965C140.903 63.5315 141.805 61.7053 142.513 59.8148C143.412 57.413 143.671 54.9221 142.455 52.4871C142.325 52.2262 142.062 51.8659 142.387 51.6588C142.712 51.4518 143.023 51.7893 143.24 52.0357C143.973 52.8639 144.257 53.8992 144.482 54.951C144.557 55.3113 144.482 55.7068 144.77 56.1023C145.284 55.6778 145.693 55.1705 146.182 54.7544C146.418 54.5473 146.722 54.2636 146.998 54.479C147.366 54.7668 147.041 55.1291 146.849 55.3714C145.61 56.8983 144.526 58.5441 143.613 60.2849C142.869 61.7624 142.246 63.2975 141.749 64.8753C140.929 67.7903 140.443 70.7891 140.3 73.814C142.164 71.3107 144.524 69.8799 147.582 69.6977C147.756 69.6942 147.927 69.6547 148.085 69.5817C150.112 68.5133 152.356 68.0392 154.49 67.2648C155.248 67.0249 155.949 66.6332 156.55 66.1135C156.772 65.9065 157.093 65.627 157.364 65.8775C157.687 66.1757 157.364 66.5131 157.18 66.7782C156.641 67.565 155.882 68.1013 155.051 68.5423C153.789 69.1767 152.485 69.7253 151.149 70.1843C150.213 70.546 149.306 70.9772 148.435 71.4743C149.836 72.1472 151.126 72.671 152.639 72.2279C153.43 71.979 154.249 71.8336 155.076 71.7952C155.749 71.7952 156.426 71.8491 157.093 71.6875C157.902 71.7745 158.739 71.6565 159.519 71.9857C159.683 72.161 159.791 72.3803 159.831 72.6165C159.871 72.8528 159.841 73.0956 159.745 73.315Z" fill="#5CAB01"/>
<path d="M99.6844 134.768C99.6011 134.782 99.5238 134.82 99.4622 134.878C99.4006 134.936 99.3577 135.011 99.3387 135.093C98.8356 136.557 98.3346 137.079 96.8646 136.795C94.9289 136.42 93.2064 137.043 91.4135 137.416C86.3764 138.48 81.3392 138.636 76.3 137.416C75.9729 137.337 75.621 137.3 75.3622 137.043C75.6976 136.671 76.1262 136.756 76.5174 136.863C78.4875 137.373 80.5115 137.645 82.5462 137.675C86.1734 137.778 89.7427 137.29 93.4134 136.304C92.1712 134.867 92.341 133.474 93.2354 132.078C93.6225 131.523 94.0096 130.964 94.3844 130.368C92.0159 130.678 90.958 130.177 90.2106 128.411C90.1216 127.496 89.9767 126.568 90.8317 125.887C91.5542 124.796 92.3803 123.806 93.5418 123.15C93.9559 122.487 94.6867 122.435 95.3471 122.309C95.8357 122.216 96.2808 122.121 96.5893 121.688C96.8419 121.34 97.2104 121.288 97.6079 121.361C99.1876 121.651 100.66 122.131 101.796 123.378C102.599 124.258 103.703 124.862 104.206 126.02C104.993 127.363 105.163 128.813 104.933 130.326C104.767 131.623 104.216 132.604 102.813 132.867C101.531 133.105 100.453 132.766 99.6389 131.761C99.3884 132.739 100.07 133.743 99.6844 134.768Z" fill="#D8AF84"/>
<path d="M103.885 126.036C102.411 124.131 100.811 122.377 98.3407 121.789C97.7072 121.638 96.9226 121.218 96.5479 122.268C96.465 122.502 96.1503 122.524 95.9102 122.524C95.0613 122.524 94.314 122.885 93.5397 123.146C93.0635 122.253 92.343 121.489 92.0904 120.479C91.5811 118.46 92.9061 116.263 94.4195 115.277C99.5954 111.909 108.034 115.582 107.81 122.448C107.774 122.758 107.847 123.07 108.017 123.332C107.585 123.827 106.997 123.653 106.465 123.667C105.036 123.711 104.666 124.007 104.368 125.378C104.303 125.657 104.359 126.053 103.885 126.036Z" fill="#7D5C40"/>
<path d="M109.247 123.603C110.87 122.568 112.732 122.032 114.423 121.143C115.694 120.479 116.992 119.868 118.15 119.023C118.691 118.955 119.212 118.769 119.674 118.479C121.274 117.522 122.986 117.516 124.742 117.932C125.135 118.025 125.541 118.139 125.804 118.507C125.932 118.795 125.76 118.986 125.549 119.098C124.814 119.481 124.261 120.11 123.555 120.53C122.858 121.037 122.271 121.681 121.831 122.422C121.391 123.163 121.106 123.987 120.994 124.841C120.729 126.587 120.827 128.349 121.69 129.979C121.878 130.335 122.141 130.691 121.955 131.14C121.725 131.447 121.39 131.333 121.098 131.335C119.382 131.335 117.665 131.316 115.949 131.351C115.328 131.364 114.914 131.173 114.647 130.593C113.91 129.022 112.624 128.125 110.97 127.717C110.384 127.572 109.808 127.432 109.792 126.661C109.835 125.603 109.906 124.537 109.247 123.603Z" fill="#3C3851"/>
<path d="M126.918 74.3503C126.918 74.7645 126.918 75.1682 126.918 75.5761C127.431 76.4747 127.071 77.4003 126.891 78.2679C126.59 79.7173 126.477 81.2598 125.352 82.409H115.678C117.32 80.6594 119.046 78.9905 120.092 76.7522C121.112 74.6533 121.716 72.3764 121.87 70.0477C121.98 68.0516 121.897 66.0618 121.216 64.1465C121.185 64.0857 121.176 64.0161 121.19 63.9493C121.204 63.8825 121.241 63.8227 121.295 63.78C121.876 63.896 122.419 64.155 122.875 64.5334C123.331 64.9119 123.686 65.398 123.907 65.9479C123.936 66.065 123.988 66.175 124.061 66.2708C124.134 66.3667 124.226 66.4464 124.332 66.5049C124.814 66.7555 125.073 67.2048 125.33 67.6458C126.342 69.3872 126.845 71.2942 127.116 73.2716C127.194 73.6433 127.123 74.0307 126.918 74.3503Z" fill="#EC2E59"/>
<path d="M125.35 82.4049C126.258 80.2332 126.787 77.9222 126.916 75.572C128.077 75.0605 129.276 75.4084 130.358 75.6714C134.147 76.5928 136.843 78.9698 138.64 82.4028H135.12C133.257 81.5746 131.408 81.823 129.551 82.4028L125.35 82.4049Z" fill="#6FC604"/>
<path d="M72.0041 109.699C77.7555 110.25 81.9831 116.042 80.714 121.593C80.5235 122.421 80.2605 122.723 79.4262 122.235C78.6809 121.796 77.8217 121.423 77.3952 120.69C76.3725 118.93 74.6748 117.518 74.4968 115.306C73.8252 114.581 73.2925 113.738 72.9254 112.82C72.5858 112.062 72.0207 111.459 71.4389 110.873C71.1366 110.569 70.5942 110.231 70.8033 109.807C71.0124 109.382 71.5817 109.627 72.0041 109.699Z" fill="#AABF75"/>
<path d="M65.8117 110.749L65.3977 110.774C64.8863 110.981 64.7041 110.602 64.8056 110.283C65.0644 109.48 64.7228 108.662 64.9671 107.877C64.6896 105.952 63.6524 104.452 62.3025 103.131C62.7497 102.272 62.4806 101.494 62.1431 100.647C61.6131 99.334 61.9485 98.0171 62.3812 96.7334C62.5758 96.1474 62.8967 95.9817 63.4557 96.3565C67.9587 99.3857 69.323 104.889 66.9753 109.608C66.7144 110.128 66.1078 110.269 65.8117 110.749Z" fill="#548178"/>
<path d="M90.8296 125.891C90.4641 126.734 90.3339 127.661 90.4528 128.573C90.5886 129.067 90.8116 129.533 91.1112 129.949C91.2308 130.097 91.314 130.271 91.3543 130.457C91.3945 130.643 91.3907 130.836 91.343 131.02C90.4404 132.101 89.312 131.834 88.1816 131.548C87.8773 130.939 88.0677 130.053 87.0305 129.852C86.6164 129.771 86.9084 129.289 87.0595 128.983C87.3991 128.291 87.3017 128.154 86.5191 128.218C85.9363 128.273 85.3593 128.379 84.7946 128.533C82.3557 129.175 79.863 129.438 77.3559 129.604C76.5643 129.646 75.7712 129.558 75.0081 129.343C74.2607 129.136 73.7307 128.672 73.8218 127.782C74.1386 127.367 74.6023 127.415 75.0392 127.399C77.3199 127.304 79.5934 127.079 81.8485 126.726C83.6766 126.647 85.4674 126.104 87.3162 126.266L90.8296 125.891Z" fill="#8BCE4A"/>
<path d="M109.247 123.603C110.672 124.237 109.984 125.467 110.049 126.473C109.978 127.45 110.169 128.423 110.005 129.413C109.868 130.241 109.504 130.714 108.692 130.896C107.693 131.151 106.647 131.162 105.643 130.929C105.276 130.836 104.9 130.774 104.699 130.393C104.792 128.871 104.742 127.378 103.885 126.044C104.15 125.891 104.08 125.63 104.082 125.4C104.105 124.044 104.595 123.5 105.945 123.394C106.628 123.34 107.316 123.361 108.003 123.349L109.247 123.603Z" fill="#D49E6E"/>
<path d="M72.0041 109.699L70.9192 109.753C71.0414 110.219 71.412 110.434 71.6894 110.701C72.4202 111.403 73.1158 112.18 73.3725 113.138C73.5961 113.977 74.4905 114.399 74.505 115.3C73.553 115.062 72.6857 114.565 71.9999 113.863C70.9875 112.507 69.5487 111.743 68.0787 111.018C69.3541 110.482 70.3644 109.157 72.0041 109.699Z" fill="#548178"/>
<path d="M122.286 116.547C122.661 115.818 123.406 115.484 123.984 114.971C125.16 113.927 126.339 112.887 127.522 111.849C127.624 111.757 127.719 111.641 127.87 111.764C128.054 112.051 127.87 112.298 127.75 112.524C126.835 114.069 126.522 115.897 126.87 117.659C126.897 117.828 126.881 118.002 126.824 118.164C126.801 118.243 126.756 118.313 126.694 118.368C126.633 118.423 126.558 118.46 126.477 118.474C125.441 117.58 124.228 117.108 122.905 116.861C122.786 116.854 122.669 116.823 122.563 116.769C122.456 116.715 122.362 116.639 122.286 116.547Z" fill="#3C3851"/>
<path d="M122.286 116.547C123.574 116.569 124.738 117.008 125.847 117.621C126.15 117.787 126.414 118.002 126.431 118.394C126.305 118.702 126.118 118.845 125.798 118.626C123.473 117.667 121.214 117.59 119.131 119.218C118.659 119.586 118.469 119.168 118.162 119.031C117.767 118.106 118.249 117.663 119.05 117.35C120.096 116.932 121.127 116.482 122.286 116.547Z" fill="#161556"/>
<path d="M79.6789 125.843L77.4015 124.394C78.1323 124.137 78.7948 124.541 79.4552 124.686C81.979 125.245 84.4882 125.856 87.0699 126.102C87.159 126.102 87.2376 126.21 87.3204 126.268C85.5379 126.574 83.7636 126.953 81.9376 126.968C81.5013 126.96 81.0722 126.855 80.6816 126.66C80.2909 126.466 79.9484 126.187 79.6789 125.843Z" fill="#3C3851"/>
<path d="M126.682 118.263C126.06 115.909 126.528 113.751 127.87 111.755L129.137 110.426C130.062 109.935 130.833 109.119 131.971 109.08C131.888 109.567 131.445 109.674 131.106 109.881C128.338 111.586 127.187 114.116 127.748 117.288C127.797 117.799 127.81 118.29 127.127 118.404C126.966 118.417 126.806 118.366 126.682 118.263Z" fill="#E8315A"/>
<path d="M129.549 82.407C131.412 81.2267 133.818 81.2288 135.118 82.407H129.549Z" fill="#97DB36"/>
<path d="M121.92 131.041C120.537 128.653 120.11 126.136 121.067 123.506C121.564 122.141 122.286 120.878 123.661 120.162C123.808 120.669 123.454 121.015 123.228 121.375C121.036 124.798 122.313 129.355 125.344 131.486C129.615 134.486 134.247 134.933 139.031 132.865C141.12 131.96 142.453 130.262 142.977 127.997C143.072 127.639 143.245 127.306 143.484 127.024C144.919 125.897 145.644 124.347 146.114 122.64C146.308 122.28 146.114 121.502 146.629 121.584C147.145 121.667 146.987 122.386 146.919 122.843C146.695 124.336 146.569 125.848 146.014 127.279C145.677 128.152 145.807 128.324 146.749 128.239C149.19 128.02 151.511 127.322 153.494 125.891C156.788 123.518 159.095 120.439 159.755 116.313C159.908 115.354 159.828 114.391 159.859 113.43C159.877 112.919 159.792 112.395 160.006 111.905C160.378 111.459 160.743 111.726 161.091 111.933C162.156 112.56 162.983 113.524 163.44 114.673C163.149 113.941 162.708 113.278 162.147 112.725C161.587 112.172 160.917 111.741 160.182 111.459C160.023 111.391 159.888 111.278 159.792 111.134C159.538 110.482 159.171 109.846 159.471 109.107C159.848 108.846 160.093 109.068 160.349 109.329C163.397 110.944 165.283 113.426 165.848 116.843C166.177 118.828 166.003 120.808 165.529 122.763C165.486 124.342 164.856 125.686 163.863 126.881C162.639 128.887 161.293 130.782 159.353 132.182C156.85 133.987 154.136 134.588 151.161 133.631C150.61 133.449 150.014 133.457 149.468 133.652C148.372 134.024 147.211 134.163 146.059 134.06C144.906 133.957 143.788 133.614 142.776 133.053C142.118 132.701 141.725 132.78 141.159 133.221C136.42 136.896 129.431 137.099 124.634 133.759C123.663 133.082 122.907 132.192 122.11 131.337C121.972 131.283 121.959 131.151 121.92 131.041Z" fill="#EC2E59"/>
<path d="M88.103 131.411C88.8586 131.411 89.6143 131.459 90.3658 131.411C90.5574 131.404 90.7431 131.343 90.9021 131.236C91.0611 131.128 91.1872 130.979 91.2665 130.805C92.2085 130.892 92.9351 131.362 93.5335 132.066C93.2436 132.881 92.6328 133.577 92.8419 134.579C92.9744 135.2 93.1836 135.677 93.7426 135.973C93.8916 136.051 94.1028 136.08 94.0552 136.302C94.0158 136.482 93.8481 136.557 93.6701 136.6C91.2789 137.219 88.8419 137.645 86.3825 137.874C82.8922 138.203 79.3712 137.923 75.977 137.045C75.7708 137.019 75.5621 137.019 75.3559 137.045C72.8136 136.343 70.5818 135.111 68.7557 133.182C68.6978 133.122 68.5652 133.128 68.4679 133.103L68.0539 132.689C66.9297 131.946 66.6398 130.689 66.1906 129.554C65.969 128.995 66.4162 128.662 66.9338 128.519C67.4887 128.368 68.0311 128.494 68.5569 128.676C73.3705 130.351 78.3662 130.819 83.4178 130.904C84.7262 130.925 86.0223 131.186 87.337 131.132C87.4773 131.119 87.6187 131.138 87.751 131.186C87.8834 131.235 88.0035 131.311 88.103 131.411Z" fill="#8CC84D"/>
<path d="M121.92 131.041C121.984 131.142 122.048 131.248 122.11 131.345C120.117 131.521 118.117 131.382 116.121 131.432C115.742 131.442 115.336 131.293 115.251 131.972C114.806 135.54 112.674 137.793 109.127 138.536C105.262 139.344 101.778 137.956 99.6845 134.77C99.3056 133.569 99.3014 132.335 99.3511 130.9C100.03 132.008 100.852 132.652 102.043 132.679C103.459 132.708 104.074 132.186 104.695 130.401C105.942 130.763 107.254 130.84 108.535 130.627C109.295 130.486 109.659 130.212 109.688 129.384C109.721 128.411 109.92 127.442 110.049 126.473C110.098 126.875 110.086 127.21 110.682 127.33C112.703 127.744 114.342 128.699 115.075 130.776C115.107 130.911 115.185 131.031 115.295 131.115C115.405 131.2 115.541 131.244 115.68 131.239C117.674 131.227 119.669 131.215 121.663 131.19C121.75 131.19 121.835 131.088 121.92 131.041Z" fill="#7D5C40"/>
<path d="M35.8229 130.173C35.9492 129.906 36.0735 129.641 36.1998 129.376C38.0258 125.618 41.9511 124.899 45.0318 125.984C46.3651 126.454 46.5017 126.906 45.7874 128.113C44.943 129.512 44.6114 131.161 44.8494 132.777C45.0873 134.394 45.8801 135.877 47.0918 136.973C47.2988 137.165 47.6818 137.25 47.5887 137.666C47.216 137.553 46.9261 137.762 46.6197 137.911C41.566 140.358 36.6821 137.774 35.7919 132.19C35.753 132.062 35.6951 131.94 35.6201 131.83C35.8242 131.303 35.8939 130.734 35.8229 130.173Z" fill="#9A6194"/>
<path d="M47.5887 137.667C44.4335 135.728 43.4852 130.914 45.6384 127.746C46.1932 126.933 46.1228 126.67 45.1601 126.324C41.8352 125.129 38.5351 125.976 36.5331 129.14C36.4647 129.25 36.4793 129.539 36.1998 129.376C36.2888 129.022 36.3798 128.67 36.4689 128.316C36.8602 127.024 37.6076 126.061 38.9533 125.643C41.2907 124.003 44.5743 123.986 47.011 125.574C47.3547 125.8 49.2118 125.187 49.3194 124.802C49.4023 124.504 49.1124 124.402 48.9696 124.224C47.1642 121.897 46.6218 119.358 47.8102 116.598C48.16 115.787 47.8102 115.546 47.1663 115.337C46.0338 114.965 44.8537 115.159 43.4148 115.054C44.9158 114.532 46.1767 114.244 47.4624 114.64C48.3526 114.911 49.0482 114.847 49.6113 114.056C49.7169 113.907 49.8474 113.708 50.102 113.758C46.8226 117.971 48.2946 121.843 51.0316 123.976C52.663 125.245 54.5801 125.516 56.6091 125.104C58.6794 124.69 59.9899 123.288 61.2052 121.727C60.3481 124.127 58.8078 125.819 56.2716 126.456C54.1661 126.986 52.1869 126.686 50.3774 125.444C49.9633 125.154 49.572 125.206 49.1352 125.458C45.6343 127.488 44.8392 132.705 47.5907 135.675C49.9757 138.246 53.3235 138.704 56.3565 136.863C56.5502 136.72 56.7825 136.638 57.0231 136.629C54.3938 139.358 50.6755 139.77 47.5887 137.667Z" fill="#74378A"/>
<path d="M58.3544 135.167C58.3337 134.753 58.3109 134.256 58.698 134.056C59.0852 133.855 59.3398 134.312 59.6566 134.484C61.2425 135.341 62.8863 135.869 64.733 135.445C65.1243 135.354 65.5384 134.987 65.9752 135.331C63.4122 136.631 60.8678 136.631 58.3544 135.167Z" fill="#75388A"/>
<path d="M159.532 109.122C159.67 109.801 159.807 110.482 159.946 111.163C160.099 111.337 160.298 111.497 160.153 111.774C160.153 114.211 160.331 116.667 159.356 118.994C157.886 122.514 155.581 125.247 152.134 126.993C150.29 127.917 148.275 128.449 146.215 128.556C145.31 128.612 145.201 128.285 145.546 127.568C146.433 125.728 146.428 123.719 146.789 121.576C146.375 122.038 146.66 122.502 146.327 122.767C145.936 122.469 145.996 122.025 146.018 121.63C146.203 118.329 144.718 115.671 142.801 113.174C142.016 112.131 141.062 111.226 139.979 110.496C139.727 110.329 139.443 110.169 139.464 109.792C142.824 107.995 146.089 107.985 149.194 110.366C149.502 110.637 149.788 110.932 150.051 111.246C150.194 111.89 149.637 111.933 149.277 112.116C148.917 112.298 148.449 112.252 147.828 112.323C149.085 112.406 149.95 112.035 150.642 111.24C152.83 108.782 155.571 108.146 158.703 108.79C158.91 108.832 159.107 108.867 159.308 108.904C159.365 108.908 159.419 108.932 159.46 108.972C159.501 109.011 159.526 109.065 159.532 109.122Z" fill="#FB6F6D"/>
<path d="M139.462 109.792C142.954 112.116 145.215 115.3 146.186 119.387C146.451 120.503 146.283 121.64 146.325 122.767C145.911 124.508 145.211 126.08 143.633 127.105C142.298 126.844 141.209 126.046 140.021 125.465C139.348 125.084 138.644 124.759 138 124.326C137.93 124.254 137.874 124.171 137.834 124.079C137.354 121.802 135.725 120.719 133.418 121.199C132.797 121.33 132.367 121.04 131.909 120.742C130.758 119.938 129.568 119.195 128.437 118.363C128.071 118.111 127.749 117.801 127.485 117.443C126.806 114.014 128.176 111.128 131.251 109.496C131.491 109.368 131.723 109.221 131.961 109.082C134.576 108.19 137.056 108.608 139.462 109.792Z" fill="#FEF4C6"/>
<path d="M151.221 107.834C150.859 108.345 151.105 109.153 150.354 109.49C149.526 109.863 148.443 109.577 147.78 108.765C147.068 107.892 146.911 106.821 146.756 105.776C146.567 104.506 146.362 103.262 145.447 102.013C147.973 102.684 150.058 103.57 151.037 106.02C151.598 106.571 151.695 107.173 151.221 107.834Z" fill="#91A36D"/>
<path d="M151.221 107.834C151.242 107.223 151.178 106.613 151.033 106.02C151.265 105.026 153.43 102.947 154.42 102.792C154.94 102.713 155.248 103.022 155.455 103.452C155.646 103.823 155.612 104.156 155.219 104.316C153.513 105.011 152.343 106.264 151.461 107.836C151.401 107.956 151.304 107.91 151.221 107.834Z" fill="#151556"/>
<path d="M150.642 111.231C150.319 112.267 148.43 113.066 147.49 112.552C147.385 112.494 147.25 112.345 147.257 112.256C147.273 111.964 147.532 112.01 147.727 112.012C148.588 112.022 149.464 112.082 150.043 111.244C150.134 111.298 150.238 111.326 150.344 111.324C150.45 111.322 150.553 111.29 150.642 111.231Z" fill="#C52325"/>
<path d="M159.532 109.122L159.308 108.896C159.551 108.462 159.792 108.029 160.033 107.596C160.416 108.119 160.353 108.726 160.349 109.32L159.532 109.122Z" fill="#EADFDC"/>
<path d="M197.837 124.034C197.234 124.757 197.274 125.581 197.45 126.428C196.86 127.132 195.974 126.98 195.239 127.065C189.365 127.734 183.899 126.43 178.908 123.313C174.177 120.361 170.713 116.273 168.451 111.161C167.088 108.09 166.403 104.885 166.107 101.535C165.852 98.6003 166.076 95.6436 166.769 92.7806C166.827 92.7459 166.895 92.7327 166.962 92.7434C167.511 92.851 167.366 93.2879 167.397 93.6461C167.856 98.982 168.863 104.196 171.31 109.004C173.908 114.108 177.715 118.054 182.988 120.475C186.357 122.019 189.91 122.792 193.58 123.212C195 123.38 196.572 122.997 197.837 124.034Z" fill="#FDDF66"/>
<path d="M38.945 125.643C37.8892 126.322 37.177 127.318 36.4607 128.316C33.6429 129.426 30.7817 130.349 27.7466 130.678C22.3782 131.26 17.1879 130.62 12.2191 128.463C9.30201 127.198 6.58779 125.61 4.28351 123.382C5.39321 123.858 6.50292 124.33 7.61262 124.808C7.87913 124.957 8.17918 125.034 8.48422 125.034C10.0183 125.873 11.7388 126.146 13.4075 126.417C15.2584 126.717 17.1341 126.98 19.0408 126.897C24.9641 126.641 30.4732 125.129 35.3799 121.673C36.2841 121.051 37.1555 120.383 37.9906 119.671C38.2349 119.464 38.4792 119.081 38.9264 119.257C38.1831 121.381 38.4213 123.512 38.945 125.643Z" fill="#EC2E59"/>
<path d="M25.8419 114.281C25.2705 114.321 24.9807 113.923 24.6929 113.534C24.196 112.865 24.2208 112.041 24.0594 111.277C23.9765 110.888 24.2167 110.656 24.6018 110.794C25.6059 111.182 26.5769 111.643 26.9744 112.764C27.0409 112.94 27.0619 113.131 27.0355 113.317C27.0091 113.504 26.9361 113.681 26.8233 113.832C26.7105 113.983 26.5615 114.104 26.39 114.182C26.2185 114.261 26.03 114.295 25.8419 114.281Z" fill="#A14159"/>
<path d="M33.3137 105.1C33.1874 104.401 33.5001 104.206 34.2351 104.55C34.97 104.893 35.6263 105.326 36.0238 106.045C36.3861 106.699 36.3385 107.395 35.6636 107.757C35.5217 107.844 35.3633 107.901 35.1983 107.923C35.0334 107.945 34.8656 107.933 34.7058 107.886C34.5459 107.84 34.3976 107.76 34.2702 107.653C34.1427 107.546 34.0391 107.414 33.9659 107.264C33.56 106.614 33.3349 105.867 33.3137 105.1Z" fill="#A14159"/>
<path d="M18.2272 117.34C18.1403 116.683 18.3597 116.511 18.9663 116.812C19.7116 117.18 20.4507 117.567 20.8938 118.294C21.2851 118.936 21.3638 119.661 20.6619 120.12C20.0139 120.535 19.4052 120.253 18.9746 119.652C18.4756 118.963 18.3224 118.155 18.2272 117.34Z" fill="#A14159"/>
<path d="M34.5125 112.445C34.5706 112.569 34.6399 112.687 34.7195 112.799C35.1957 113.408 35.3572 114.041 34.7464 114.631C34.1357 115.222 33.4939 114.948 32.9142 114.493C32.5282 113.732 32.2694 112.913 32.1482 112.068C32.0674 111.501 32.2289 111.24 32.8106 111.532C33.3924 111.824 33.9431 112.14 34.5125 112.445Z" fill="#8A405E"/>
<path d="M100.79 59.2806C97.1048 59.6947 94.3015 61.5583 92.1608 64.5171C91.9538 64.7925 91.842 65.1383 91.4776 65.2584L90.6205 55.4811C91.2455 55.5057 91.8443 55.7381 92.3223 56.1416C93.0159 56.709 93.6038 56.5909 94.2373 56.0277C96.5789 53.9572 97.2973 53.9696 99.5457 56.1147C100.492 57.0175 102.237 57.2949 103.396 56.7359C105.111 55.9076 106.32 56.2555 107.45 57.9285L106.326 59.2723C106.009 59.5808 105.622 59.5042 105.264 59.4276C103.773 59.0963 102.283 59.2661 100.79 59.2806Z" fill="#EBD8C7"/>
<path d="M117.119 31.7419C114.32 35.0652 111.704 38.5386 109.283 42.1466C109.117 42.393 108.984 42.7077 108.616 42.7347L108.409 42.6912C108.202 42.3765 108.361 42.0949 108.498 41.8195C109.357 40.0905 110.185 38.3492 110.935 36.5685C112.015 34.15 113.019 31.7026 113.91 29.2076C114.707 26.9713 115.485 24.731 116.154 22.4534C116.219 22.1119 116.415 21.8095 116.7 21.6106V20.9894C116.7 19.9086 117.262 18.9727 117.466 17.9415C117.705 16.7385 118.119 15.577 118.348 14.3677C118.413 14.0364 118.493 13.6948 118.827 13.5022C119.29 13.6244 119.241 14.024 119.293 14.3636C118.984 16.0366 119.009 17.7842 118.17 19.333C117.464 21.9336 116.945 24.584 116.1 27.1536C115.605 28.6692 115.146 30.1973 114.746 31.7544C115.392 31.2595 115.421 30.4685 115.661 29.779C115.974 28.8825 116.46 28.193 117.543 28.224C117.305 29.3877 116.545 30.4851 117.119 31.7419Z" fill="#6FC604"/>
<path d="M38.9306 108.291C38.9948 108.347 39.0412 108.421 39.0644 108.503C39.0876 108.585 39.0864 108.672 39.061 108.753C38.5455 111.097 39.3694 113.039 40.9243 114.727C41.8973 115.787 41.9284 115.762 40.7525 116.576C38.4461 114.375 37.8747 110.859 38.9306 108.291Z" fill="#76378A"/>
<path d="M33.3821 121.549C32.79 121.566 32.4028 121.232 32.1627 120.748C31.9225 120.263 31.6595 119.752 31.6658 119.185C31.6658 118.814 31.3697 118.336 31.6658 118.106C32.0198 117.828 32.4504 118.205 32.7879 118.392C33.5083 118.789 34.2371 119.22 34.4441 120.129C34.5973 120.895 34.1357 121.533 33.3821 121.549Z" fill="#513B69"/>
<path d="M25.2436 120.698C25.8937 120.992 26.55 121.278 27.0593 121.806C27.5686 122.334 27.7321 122.922 27.4733 123.593C27.4117 123.773 27.2937 123.929 27.1368 124.037C26.9798 124.145 26.7922 124.2 26.6017 124.193C26.2888 124.205 25.9815 124.108 25.7315 123.919C25.4815 123.731 25.3041 123.462 25.2291 123.158C24.9807 122.357 24.2478 121.502 25.2291 120.7L25.2436 120.698Z" fill="#503B68"/>
<path d="M43.8827 103.514C43.1167 103.734 42.5246 104.413 41.6551 104.355C41.241 103.661 41.1913 102.866 41.0547 102.102C40.9698 101.616 41.2141 101.481 41.6551 101.688C42.5474 102.113 43.4728 102.5 43.8827 103.514Z" fill="#523C69"/>
<path d="M106.81 35.7133C106.744 36.4608 106.465 37.1441 106.152 37.846C105.585 34.4212 105.022 31.0131 104.239 27.6422C105.134 26.7021 105.305 25.4826 105.541 24.2878C106.517 24.9214 106.682 25.8097 106.438 26.8885C106.278 27.5966 105.877 28.3213 106.349 29.0647C106.821 29.808 107.334 30.4996 107.502 31.3796C107.937 32.9304 107.525 34.3447 106.81 35.7133Z" fill="#97DC38"/>
<path d="M159.745 73.315C159.488 72.9278 159.538 72.4867 159.538 72.0602C159.02 71.2195 159.231 70.2505 159.101 69.3478C158.451 64.7925 157.012 60.5664 154.219 56.887C152.179 54.1776 149.517 51.9994 146.457 50.5365C146.081 50.3564 145.555 50.3295 145.447 49.7684C146.669 49.3253 147.847 49.5924 148.929 50.1452C151.414 51.4124 154.039 52.2717 156.604 53.3091C160.77 54.9924 162.867 57.6324 162.815 61.9392C162.801 63.2209 162.498 64.5212 162.177 65.776C161.948 66.6767 162.122 67.4697 162.384 68.2855C163.006 70.1925 163.382 72.1347 163.25 74.1536C162.099 73.8119 160.966 73.375 159.745 73.315Z" fill="#4C931E"/>
<path d="M118.785 13.5665C118.371 15.8441 117.703 18.0617 117.094 20.2917C116.987 20.5403 116.848 20.7736 116.68 20.9854C116.011 21.3105 115.452 21.8136 114.63 21.8737C113.411 21.9689 112.819 21.5611 112.767 20.3415C112.709 18.9376 113.487 17.8816 114.251 16.8215C114.63 16.2935 115.007 15.7592 115.342 15.2022C115.777 14.4775 115.777 13.7135 115.46 12.9246C114.467 10.4606 114.997 9.16244 117.324 7.82691C118.634 7.07115 120.04 6.46439 121.278 5.62167C123.11 4.37932 124.686 5.59891 124.771 7.6053C124.785 7.74295 124.785 7.88176 124.771 8.01941C124.545 9.32802 125.139 10.2535 126.106 11.0528C126.99 11.7816 127.073 12.7445 126.547 13.7818C125.408 16.0222 123.526 17.2646 121.164 17.8568C120.042 18.1384 119.212 18.9604 118.15 19.3331L118.978 14.3637C119.268 13.902 118.841 13.3719 119.071 12.9971C119.022 13.2069 118.925 13.4022 118.785 13.5665Z" fill="#A4E252"/>
<path d="M109.237 16.8793C108.574 14.9909 107.189 13.6223 105.924 12.146C105.281 11.4287 104.801 10.5797 104.52 9.65813C104.238 8.73657 104.161 7.76463 104.293 6.81008C104.448 5.62778 104.887 5.20741 106.057 5.0604C107.227 4.91339 107.92 4.11834 108.446 3.15138C108.794 2.51779 109.146 1.90905 109.798 1.5115C110.694 0.954515 111.552 1.13666 112.098 1.85929C113.415 3.60272 114.715 5.37933 115.676 7.35259L115.262 7.95304C113.854 9.4128 113.58 11.0092 114.363 12.9224C114.578 13.4387 114.64 14.0058 114.542 14.5563C114.444 15.1069 114.19 15.6178 113.81 16.0283C112.651 17.2706 111.771 18.5792 111.641 20.3082C111.075 20.6353 110.759 20.2088 110.442 19.8816C109.88 19.2874 109.472 18.5654 109.251 17.778C109.117 17.486 108.993 17.1837 109.237 16.8793Z" fill="#7FE604"/>
<path d="M111.065 36.7279C110.148 35.9784 109.982 35.2785 110.516 34.2432C110.796 33.6966 111.177 33.1955 111.415 32.6323C111.916 31.4458 110.794 29.7935 109.481 29.719C109.22 27.9714 109.779 26.4868 110.931 25.1865C111.361 24.6999 111.676 24.116 112.173 23.6853C112.419 23.7889 112.289 24.3065 112.684 24.1988C112.814 24.1492 112.926 24.0601 113.003 23.9438C113.081 23.8276 113.12 23.6902 113.115 23.5508C113.075 22.5755 113.452 22.4906 114.268 22.8322C114.767 23.0393 115.282 22.9233 115.663 22.3829C115.901 22.0413 116.187 21.6479 116.698 21.6189C115.264 26.5359 113.536 31.3621 111.523 36.0715C111.407 36.3138 111.332 36.585 111.065 36.7279Z" fill="#98DC38"/>
<path d="M112.171 23.677C112.154 24.526 111.413 24.9194 111.001 25.5219C110.262 26.5883 109.438 27.5925 109.833 29.0274C109.928 29.3753 109.566 29.4685 109.481 29.7107C108.81 30.394 108.798 31.245 108.908 32.1043C109.069 33.3466 109.009 34.4606 107.523 34.8561C106.964 35.0052 107.384 35.6222 107.015 35.8521L106.808 35.7133C107.069 34.2639 107.67 32.829 107.222 31.3051C107.365 29.2573 107.599 27.2198 107.908 25.1927C108.239 23.0165 108.577 20.8445 109.009 18.6808C109.084 18.3122 109.14 17.9271 109.475 17.6765C109.902 18.7698 110.359 19.8403 111.529 20.3683C112.059 20.7948 112.371 21.3062 112.181 22.0247C112.175 22.5741 112.172 23.1249 112.171 23.677Z" fill="#70C604"/>
<path d="M112.179 22.0165C112.162 21.3953 111.765 20.9108 111.527 20.36C111.179 18.6104 112.227 17.4301 113.26 16.2851C114.33 15.0986 114.52 13.7859 113.926 12.3841C113.154 10.5641 113.684 8.86416 115.255 7.94482C115.388 8.78755 114.574 9.21612 114.376 9.92633C114.307 10.1707 114.069 10.355 114.206 10.6635C114.676 11.7298 114.81 12.8832 114.937 14.0178C115.046 14.9931 114.496 15.8813 113.831 16.4487C112.44 17.6496 112.309 19.2129 112.175 20.828C112.154 21.1013 112.338 21.269 112.504 21.4491C113.077 22.0372 112.316 21.8446 112.179 22.0165Z" fill="#98DC38"/>
<path d="M145.437 49.7684C154.998 54.1166 159.004 61.9848 159.527 72.0602C158.699 72.0602 157.859 72.1555 157.043 71.8946C156.366 72.1182 155.648 71.82 154.973 72.0664C154.333 72.1783 153.666 72.2052 153.064 72.4184C151.23 73.0686 149.648 72.4433 147.946 71.5447C148.871 70.764 149.89 70.3831 150.894 69.9752C152.55 69.3064 154.271 68.7867 155.759 67.7576C156.498 67.2614 157.082 66.5666 157.443 65.7532C154.658 68.2918 151.025 68.1883 148.109 69.8696C147.393 70.2837 146.354 70.1015 145.499 70.3292C143.495 70.8593 141.967 72.1141 140.71 73.725C140.503 73.9859 140.366 74.3172 139.919 74.4186C140.174 71.1492 140.458 67.9315 141.528 64.8381C142.381 65.3039 143.166 64.8381 143.903 64.5606C145.588 63.9084 147.145 62.9766 148.348 61.6183C150.488 59.2019 150.689 56.7297 148.666 54.1642C146.785 51.7706 144.147 50.6919 141.35 49.9941C137.64 49.0665 133.897 49.2031 130.218 50.2467C127.754 50.9445 125.584 52.1206 123.829 54.0607C121.758 56.3549 122.117 59.5602 124.036 61.5376C124.45 61.9517 125.089 62.2602 125.003 63.018C124.199 63.2354 123.638 62.7323 123.255 62.2167C122.731 61.5086 121.688 61.3885 121.369 60.7466C121.075 60.1482 121.622 59.2703 121.34 58.4814C121.11 57.7831 121.161 57.0229 121.481 56.3611C122.075 54.9925 122.367 53.4871 123.551 52.3897C124.071 51.9073 124.657 51.5967 125.222 51.2178C127.056 49.9879 129.114 49.3812 131.238 48.9029C133.456 48.4018 135.677 48.114 137.95 48.3997C138.396 48.4555 138.849 48.4139 139.277 48.2776C141 48.2942 142.619 48.8035 144.236 49.3253L145.437 49.7684Z" fill="#98DC38"/>
<path d="M109.473 17.6766C109.028 20.4139 108.56 23.1491 108.148 25.8926C107.918 27.4145 107.781 28.9529 107.591 30.4831C107.554 30.7875 107.752 31.2182 107.218 31.3113C107.146 30.4831 106.169 30.0006 106.349 29.071C106.833 26.5573 107.303 24.0415 107.81 21.534C108.08 20.1944 108.405 18.8651 108.738 17.5378C108.802 17.2832 108.765 16.8649 109.237 16.8856L109.473 17.6766Z" fill="#3A7504"/>
<path d="M139.267 48.2713C138.801 49.0002 138.091 48.7476 137.499 48.6192C135.582 48.2051 133.756 48.6668 131.909 49.0706C131.081 49.2528 130.272 49.5634 129.435 49.6482C127.435 49.8553 125.731 50.9465 124.344 52.0895C122.284 53.7873 121.104 56.2162 121.719 59.1046C121.82 59.5788 122.032 60.0074 121.512 60.3967C121.199 60.6327 121.456 60.9122 121.694 60.8605C122.493 60.6865 122.843 61.2849 123.156 61.7467C123.573 62.3816 124.225 62.8247 124.969 62.9787C126.133 63.2955 127.247 63.6827 127.868 64.8422C125.399 64.0838 123.143 62.7553 121.282 60.964C120.842 60.5263 120.495 60.0043 120.262 59.4294C120.029 58.8545 119.914 58.2383 119.924 57.6179C119.425 59.527 120.361 60.8915 121.626 62.1152C122.951 63.399 124.603 64.1858 126.354 65.13L123.897 65.9334C123.048 65.1838 122.307 64.308 121.284 63.7676L120.444 63.1567C118.746 62.6846 117.16 61.8212 115.353 61.7301C115.266 61.7196 115.184 61.6885 115.112 61.6395C115.04 61.5905 114.98 61.525 114.939 61.4485C114.869 61.3298 114.847 61.1894 114.877 61.0551C115.516 59.3614 116.313 57.7691 117.775 56.6013C118.099 56.3716 118.365 56.0705 118.553 55.7213C122.431 51.5801 127.193 49.0954 132.806 48.2858C134.945 47.9406 137.126 47.9357 139.267 48.2713Z" fill="#98DC38"/>
<path d="M114.966 61.3595C116.525 61.5666 118.071 61.8544 119.483 62.5894C119.814 62.7634 120.129 62.9725 120.45 63.1651C118.794 63.2417 117.162 62.8317 115.508 63.1775C114.738 63.3369 114.456 63.4446 115.094 64.2128C116.881 66.3828 117.957 69.0435 118.102 71.3791C117.613 71.2093 117.481 70.7579 117.241 70.4162C115.872 68.4298 114.313 66.5811 112.587 64.8961C112.092 64.4137 111.843 64.3909 111.427 64.9976C110.318 66.6167 109.386 68.3394 108.222 69.9918C108.374 69.1925 108.516 68.3933 108.678 67.5961C108.885 66.6188 109.04 65.6311 109.311 64.6725C109.531 63.9022 109.266 63.7697 108.576 63.8712C106.668 64.1486 104.767 64.4447 102.962 65.1714C102.781 65.2132 102.596 65.2368 102.411 65.2419C104.156 63.6206 106.154 62.7448 108.27 61.8358C106.454 60.6307 104.543 60.0924 102.593 59.6824C101.993 59.5582 101.395 59.4153 100.796 59.2807C102.324 58.7672 103.873 58.8168 105.43 59.1212C105.728 59.1792 106.032 59.2186 106.332 59.2662L108.624 60.3222C108.692 60.3061 108.763 60.3061 108.831 60.3222C110.191 60.8046 110.185 60.8026 110.939 59.525C111.318 58.879 111.703 58.233 112.349 57.8044C113.036 57.4834 113.284 56.4958 114.233 56.562C114.934 57.0238 114.533 57.5207 114.233 57.9617C113.775 58.6471 113.183 59.2392 112.835 60.0033C112.398 60.9723 112.492 61.1049 113.518 61.0717C114.011 61.0552 114.556 60.8916 114.966 61.3595Z" fill="#4D3863"/>
<path d="M114.966 61.3596C114.249 61.3596 113.535 61.2871 112.823 61.4735C112.249 61.6225 112.065 61.343 112.233 60.7943C112.55 59.817 113.057 58.9116 113.723 58.1295C114.067 57.7154 114.758 57.3012 114.222 56.562C115.56 55.6965 116.5 55.709 117.781 56.6097C116.758 58.1419 115.614 59.6058 114.966 61.3596Z" fill="#4D931E"/>
<path d="M114.883 51.9756C113.918 53.0564 113.908 54.1331 114.098 55.2388C114.137 55.4749 114.305 55.7213 114.042 55.8973C112.765 56.7835 111.574 57.8084 110.057 58.382C110.844 56.9906 111.092 55.4231 111.781 54.0338C112.349 52.8867 113.355 52.2779 114.883 51.9756Z" fill="#4C921D"/>
<path d="M112.338 57.7981C111.788 58.7299 111.053 59.5581 110.682 60.583C110.367 61.4278 109.937 61.4112 109.345 60.8832C109.117 60.6762 108.868 60.5085 108.628 60.3221C109.436 58.8582 110.924 58.3841 112.338 57.7981Z" fill="#4C921D"/>
<path d="M88.103 131.411C82.3454 131.281 76.5837 131.192 70.9544 129.767C70.0228 129.531 69.1139 129.212 68.205 128.898C67.7846 128.741 67.329 128.703 66.8883 128.788C66.4742 128.875 66.1844 129.117 66.4411 129.616L68.0622 132.708C66.2838 132.18 65.1637 130.844 64.0871 129.459C63.8767 129.188 63.6981 128.893 63.5551 128.581C63.4226 128.287 62.9609 128.082 63.1886 127.695C63.4163 127.307 63.8884 127.281 64.2983 127.314C65.8304 127.469 67.3583 127.659 68.8882 127.823C69.3023 127.867 69.706 127.867 70.1159 127.887C71.3218 127.41 72.6659 127.419 73.8653 127.912C74.4864 129.034 75.7928 129.475 77.3849 129.361C80.5318 129.134 83.5959 128.452 86.7014 127.896C87.0678 127.829 87.4715 127.593 87.6786 128.086C87.867 128.542 87.7738 128.96 87.2832 129.221C87.1382 129.297 86.9809 129.409 87.0388 129.62C87.0864 129.788 87.2459 129.769 87.3722 129.798C88.5481 130.063 88.575 130.126 88.103 131.411Z" fill="#5FA63E"/>
<path d="M64.967 107.869C64.9546 108.672 65.3335 109.463 65.0147 110.285C64.9132 110.546 65.1119 110.73 65.3976 110.766C64.9277 110.973 64.7351 111.387 64.5695 111.84C64.0128 113.437 62.9472 114.806 61.5365 115.737C61.0313 116.083 60.7456 115.878 60.4413 115.453C60.1369 115.029 60.2073 114.795 60.6483 114.569C63.2921 113.236 64.7186 111.113 64.8014 108.126C64.8138 108.039 64.9132 107.954 64.967 107.869Z" fill="#75388A"/>
<path d="M50.7956 105.158C49.9033 107.569 50.1745 109.821 51.5037 111.977C51.6589 112.229 52.1827 112.563 51.4664 112.826C51.0296 112.987 50.5989 113.343 50.3029 112.641C49.3381 110.347 49.0586 107.567 50.7956 105.158Z" fill="#75378A"/>
<path d="M127.876 64.8505C127.034 64.0368 125.897 63.6806 124.978 62.987C124.381 62.0614 123.384 61.4961 122.87 60.4691C121.33 57.3881 122.284 55.0856 124.294 53.1683C126.824 50.7415 129.959 49.8118 133.309 49.3356C137.837 48.6917 142.157 49.3543 146.145 51.5822C148.066 52.6548 149.55 54.2512 150.194 56.4564C150.786 58.4917 149.998 60.2082 148.71 61.6535C147.006 63.5667 144.811 64.7594 142.317 65.3805C141.797 65.511 141.503 65.4406 141.52 64.8422C142.269 61.8378 143.72 59.1709 145.482 56.6572C145.96 55.9739 146.491 55.3279 146.998 54.6653L146.727 54.4106L144.538 56.9678C144.101 54.8972 144.099 52.9861 142.468 51.7458C144.172 54.9635 143.671 58.0942 142.219 61.227C141.474 62.84 140.83 64.5026 140.025 66.1653C139.197 60.5333 136.996 55.6426 132.617 51.8969C134.621 54.2491 136.282 56.8 137.321 59.7361C138.357 62.6916 138.863 65.8065 138.818 68.9378C137.907 68.3373 137.503 67.4615 136.731 66.9273C135.612 66.1128 134.268 65.6676 132.884 65.6539C131.182 65.6414 129.445 65.7574 127.876 64.8505Z" fill="#A4E253"/>
<path d="M126.918 74.3503C126.758 71.5521 125.865 68.8452 124.33 66.5008C125.655 65.8465 126.965 65.4799 128.47 66.0576C129.934 66.6208 131.534 66.2482 133.073 66.4531C135.899 66.8279 137.487 68.6728 138.735 70.9193C139.149 71.6813 138.627 72.5986 138.54 73.4434C138.427 74.5657 138.151 75.6693 138.031 76.7915C137.957 77.4624 137.789 77.4293 137.288 77.1208C135.203 75.8432 132.998 74.8431 130.559 74.4601C130.224 74.4062 129.882 74.3793 129.543 74.3399C128.785 74.1929 128.005 74.1929 127.247 74.3399L126.918 74.3503Z" fill="#98DC38"/>
<path d="M149.78 73.5884C148.56 74.4006 147.429 75.3381 146.404 76.3857C145.575 77.214 145.002 78.2492 144.205 79.1023C142.977 80.4275 140.913 80.1024 139.716 78.8373C139.622 78.7624 139.553 78.6603 139.518 78.5448C139.483 78.4293 139.484 78.306 139.522 78.1913C140.501 75.4995 141.799 73.0894 144.818 72.1866C145.439 72.0023 146 72.0044 146.578 72.3937C147.497 73.0293 148.621 73.1722 149.78 73.5884Z" fill="#98DC38"/>
<path d="M127.247 74.342C127.984 74.047 128.806 74.047 129.543 74.342H127.247Z" fill="#6FC604"/>
<path d="M154.975 72.0664C155.639 71.6958 156.354 71.936 157.045 71.8946C156.38 72.259 155.664 72.0105 154.975 72.0664Z" fill="#6FC604"/>
<path d="M93.5335 132.062L91.2665 130.803C90.9208 130.086 90.3659 129.446 90.4528 128.573C91.5791 130.252 92.9083 130.643 94.8564 129.815C94.6246 130.749 94.0428 131.384 93.5335 132.062Z" fill="#805F41"/>
<path d="M102.933 129.591C101.167 128.26 101.154 128.26 99.4546 129.626C99.5312 128.241 100.258 127.44 101.363 127.527C102.359 127.599 103.001 128.407 102.933 129.591Z" fill="#826042"/>
<path d="M95.5769 128.676C94.9992 126.796 94.4837 126.481 92.6784 126.813C92.8627 126.133 93.196 125.792 93.8316 125.676C94.1516 125.604 94.4858 125.627 94.7927 125.743C95.0996 125.859 95.3658 126.062 95.5583 126.328C96.1359 127.075 95.9827 127.823 95.5769 128.676Z" fill="#826043"/>
<path d="M143.257 127.896C143.086 129.027 142.632 130.096 141.938 131.005C141.243 131.914 140.33 132.633 139.284 133.095C135.035 135.085 130.733 134.784 126.655 132.71C121.816 130.25 120.212 124.446 123.663 120.156C124.328 119.579 125.044 119.064 125.802 118.617L126.435 118.385L126.686 118.263H127.034C128.849 118.642 130.33 119.713 131.891 120.615C132.683 121.029 133.255 121.487 133.509 122.498C133.888 123.992 135.944 124.796 137.443 124.274C137.634 124.208 137.818 124.096 138.025 124.216L138.012 124.206C138.581 124.623 139.186 124.986 139.822 125.291C140.752 125.856 141.642 126.479 142.526 127.113C142.818 127.314 143.197 127.463 143.257 127.896Z" fill="#FEF4C6"/>
<path d="M107.177 123.968C107.279 123.961 107.381 123.961 107.483 123.968C108.03 124.036 108.904 123.835 108.893 124.566C108.893 125.187 108.001 125.131 107.444 125.21C106.866 125.292 106.277 125.22 105.736 125.003C105.51 124.914 105.256 124.806 105.254 124.535C105.252 124.264 105.537 124.144 105.755 124.098C106.216 124.005 106.692 123.976 107.165 123.92L107.177 123.968Z" fill="#805E40"/>
<path d="M131.808 120.688L127.029 118.249C127.543 118.182 127.626 117.87 127.491 117.437L131.984 120.501C132.05 120.688 132.019 120.777 131.808 120.688Z" fill="#AD6639"/>
<path d="M143.257 127.896L139.675 125.44C139.658 125.067 139.851 125.109 140.089 125.233L143.646 127.096L143.257 127.896Z" fill="#AB6536"/>
<path d="M160.153 111.784C160.028 111.598 159.863 111.428 159.946 111.173C162.033 111.737 163.854 113.77 163.672 115.505C162.848 113.907 162.039 112.306 160.153 111.784Z" fill="#FBE8EC"/>
<path d="M131.808 120.688L131.984 120.501C132.59 120.876 133.106 121.038 133.924 120.775C135.787 120.176 138.037 122.158 138.021 124.202C136.246 125.434 133.195 124.125 133.052 121.998C133.002 121.069 132.147 121.193 131.808 120.688Z" fill="#CBB584"/>
<path d="M140.085 125.243C139.923 125.264 139.741 125.243 139.671 125.45C139.05 125.125 138.416 124.817 138.015 124.208C138.751 124.452 139.448 124.8 140.085 125.243Z" fill="#CBB584"/>
<path d="M118.785 13.5664C118.959 13.0736 118.887 12.5043 119.286 12.0674C119.286 12.8501 119.305 13.6285 118.988 14.3698C118.936 14.0985 119.094 13.7735 118.785 13.5664Z" fill="#99DC39"/>
<path d="M135.203 122.624C135.321 122.23 134.613 121.864 135.118 121.609C135.623 121.355 136.201 121.628 136.596 122.046C136.928 122.398 136.803 122.738 136.41 122.976C136.342 123.024 136.284 123.085 136.239 123.157C136.195 123.228 136.166 123.307 136.153 123.39C135.872 124.293 135.532 124.396 134.835 123.775C134.59 123.556 134.228 123.33 134.352 122.947C134.476 122.564 134.915 122.831 135.203 122.624Z" fill="#A7602F"/>
</g>
<defs>
<clipPath id="clip0_1_3541">
<rect width="211" height="139" fill="white"/>
</clipPath>
</defs>
</svg>
