<svg width="169" height="130" viewBox="0 0 169 130" fill="none" xmlns="http://www.w3.org/2000/svg">
<g clip-path="url(#clip0_1_3739)">
<path d="M100.502 52.2064C103.637 51.4909 106.394 49.6318 108.238 46.9905C111.707 42.0998 116.299 38.119 121.627 35.3852C126.864 32.6141 131.725 29.1185 137.375 27.1504C138.589 26.7267 139.874 25.8348 140.706 27.7076C141.448 29.377 140.706 30.5506 139.348 31.3451C135.632 33.5335 131.85 35.6267 128.1 37.7664C125.96 38.9867 123.826 40.2218 121.69 41.4505C114.103 45.8062 110.442 52.5369 109.138 61.0852C108.367 66.1972 103.597 76.2137 98.2157 77.7687C98.2157 77.7687 99.1516 75.0866 99.1304 74.0676C99.1093 73.0486 98.8516 71.6651 97.9072 71.055C96.9629 70.4449 94.9896 72.0338 94.1572 72.9405C93.3248 73.8473 90.6987 77.1162 88.7043 76.2137C87.1536 75.5124 86.6634 72.4554 85.7338 70.3962C85.1761 69.1717 84.7387 67.7925 83.131 67.6802C81.5232 67.5679 80.9253 68.9344 80.3021 70.108C79.0218 72.5677 77.64 74.9807 76.4823 77.4975C75.7893 78.9805 74.9865 79.1012 73.6661 78.4275C71.5534 77.3683 63.58 72.7075 61.4018 74.2011C59.2236 75.6946 67.6089 85.5967 68.3083 85.8764C65.3927 88.0458 60.8103 87.853 58.9215 87.3593C52.8158 85.7598 47.0122 81.3575 43.2453 76.3323C42.1723 74.8283 41.2448 73.2251 40.4755 71.5444C39.2269 69.0022 40.053 67.731 42.6579 67.0827C51.9116 64.7523 61.142 62.3584 70.3787 59.9814C80.414 57.3947 90.4367 54.7762 100.476 52.2233" fill="#F5CA21"/>
<path d="M92.5874 22.479C92.1964 20.8199 91.3683 19.2966 90.1895 18.0682C89.0119 16.8404 87.527 15.9521 85.8901 15.4962C84.2527 15.0384 82.5226 15.0304 80.8809 15.473C79.2389 15.9167 77.746 16.7948 76.5584 18.0152C75.5523 15.6597 73.7491 13.7359 71.4667 12.5833C69.1834 11.4328 66.5683 11.1282 64.0828 11.7232C61.5972 12.3181 59.4015 13.7754 57.8841 15.8374C56.3671 17.8993 55.6256 20.4325 55.7905 22.9896C54.3988 22.4961 52.9116 22.3343 51.4468 22.5171C49.9813 22.701 48.5787 23.2247 47.3502 24.0467C46.1226 24.8687 45.1026 25.9662 44.3713 27.2521C43.6399 28.5387 43.2175 29.9785 43.1375 31.4574C43.0584 32.936 43.3239 34.4128 43.9129 35.7707C44.5026 37.1283 45.3995 38.3294 46.5326 39.279C47.6656 40.2284 49.0039 40.8994 50.4411 41.2386C51.8783 41.5797 53.3751 41.5797 54.8123 41.2386L56.6398 48.9925C56.6922 49.2106 56.7941 49.4137 56.9377 49.5857C57.0802 49.7578 57.2601 49.8947 57.4637 49.9861C57.6682 50.0772 57.891 50.1192 58.1145 50.109C58.3363 50.0993 58.553 50.0392 58.7483 49.9331C67.0578 45.3917 76.43 43.1684 85.888 43.4949C86.112 43.5034 86.3349 43.4591 86.5388 43.3657C86.7432 43.2748 86.9234 43.1369 87.0648 42.9632C87.2067 42.7898 87.3071 42.5861 87.3585 42.3678C87.4102 42.1491 87.4102 41.9213 87.3585 41.7026L85.531 33.9488C86.7449 33.6609 87.8904 33.1359 88.9018 32.4038C89.9132 31.6717 90.7708 30.7468 91.4254 29.682C92.082 28.6171 92.5227 27.4326 92.7221 26.1966C92.9215 24.9606 92.8757 23.6973 92.5874 22.479Z" fill="#F5CA21"/>
<path d="M57.2799 27.0148C58.125 21.3477 54.9982 15.8649 49.8707 13.4138C44.7431 10.9626 37.9593 10.9647 33.8141 15.2421C31.731 17.3945 30.2331 20.1444 29.2 22.9409C28.7292 24.2165 28.3756 25.5327 28.1436 26.8729C27.8922 28.3389 27.8415 29.966 29.2296 30.8981C31.3845 32.3302 33.9388 30.7307 35.6818 29.4151C38.0417 27.6207 40.1565 25.481 42.7129 23.9578C44.6143 22.8201 46.858 23.1294 48.9178 23.6802C51.0644 24.2565 53.3884 25.1908 54.9158 26.8708C56.2151 28.3008 58.3236 26.1759 57.0285 24.7522C54.5081 21.9812 50.2531 20.5745 46.6235 20.244C44.8467 20.0808 43.0783 20.3033 41.5086 21.1888C39.2797 22.4599 37.3614 24.2014 35.3987 25.8305C34.4818 26.5932 33.5416 27.3982 32.5064 27.9978C32.1631 28.2086 31.7832 28.3523 31.3866 28.4215C31.2611 28.4585 31.1288 28.4657 31 28.4427C30.7887 28.3558 31.1056 28.7393 30.9472 28.3728C30.7887 28.0063 31.1585 26.9513 31.2451 26.5953C31.3803 25.9916 31.543 25.3941 31.7289 24.8052C32.1371 23.513 32.6691 22.2636 33.3176 21.0744C34.4712 18.9559 35.9712 16.7992 38.1768 15.6849C40.3825 14.5705 43.1608 14.5726 45.5037 15.0789C50.5911 16.1742 55.2412 20.6401 54.4045 26.2331C54.2841 27.0402 54.6158 27.8347 55.4503 28.0762C56.1538 28.2881 57.168 27.8283 57.2884 27.0297L57.2799 27.0148Z" fill="#F5CA21"/>
<path d="M31.186 29.271C32.4303 26.8624 34.1743 24.7488 36.3008 23.0721C37.3741 22.2374 38.6649 21.3879 40.0509 21.246C41.4368 21.1041 42.7065 21.8646 43.8326 22.6061C45.4446 23.6654 46.9425 21.0744 45.3411 20.0194C43.8622 19.0448 42.2121 18.2271 40.4037 18.2334C38.5952 18.2398 36.8311 19.0448 35.3586 20.0702C32.5239 22.0535 30.2054 24.6901 28.5979 27.7584C27.7021 29.4532 30.2881 30.9807 31.1796 29.271H31.186Z" fill="#F5CA21"/>
<path d="M79.3513 21.2269C76.3217 17.6445 76.8161 12.382 79.4697 8.75722C80.8252 6.93834 82.6036 5.47937 84.65 4.50741C87.1853 3.28713 89.7691 3.50748 92.3212 4.57522C94.5953 5.53681 96.6812 6.89536 98.4819 8.58773C98.9044 8.97966 99.3079 9.38854 99.6946 9.81225C99.8467 9.97749 100.415 10.4626 100.43 10.7401C100.419 10.5495 100.286 10.791 100.052 10.899C99.6023 11.0793 99.1193 11.1595 98.6361 11.1342C93.891 11.1173 88.4951 8.64067 84.0352 11.1596C82.0577 12.2782 80.4077 13.9667 79.0408 15.7611C77.8154 17.3733 76.6893 19.2419 76.3111 21.2587C75.9583 23.1442 78.8464 23.9514 79.1929 22.0553C79.569 20.0469 80.7943 18.208 82.1148 16.6911C83.3592 15.2654 84.9817 13.6447 86.8873 13.1871C88.1212 12.8905 89.5705 13.0938 90.8254 13.2231C92.5156 13.3968 94.2058 13.6997 95.8959 13.9074C98.1544 14.1828 101.454 14.5726 102.929 12.31C104.577 9.76777 101.564 7.26364 99.8255 5.77854C97.6835 3.92817 95.2324 2.47155 92.5853 1.47577C89.6676 0.393195 86.6698 0.384707 83.8071 1.61982C81.2521 2.73308 79.0184 4.4746 77.3126 6.68316C73.5309 11.5685 73.1463 18.511 77.2365 23.3476C78.483 24.82 80.5894 22.6908 79.3492 21.229L79.3513 21.2269Z" fill="#F5CA21"/>
<path d="M102.105 8.91824C98.9699 7.07087 95.3107 5.90779 91.6557 5.89084C89.9529 5.89084 88.1761 6.20648 86.7543 7.1916C85.3726 8.14706 84.481 9.58134 83.7965 11.0813C82.9915 12.8206 85.5669 14.3438 86.3761 12.5939C86.8937 11.4795 87.4789 10.2741 88.5479 9.59404C89.6634 8.88433 91.0642 8.84197 92.3508 8.90976C95.2716 9.10421 98.1041 9.99386 100.614 11.505C102.276 12.4837 103.783 9.89489 102.122 8.91824H102.105Z" fill="#F5CA21"/>
<path d="M103.525 47.0138C103.647 38.8514 106.063 30.8891 110.497 24.0425C111.553 22.4176 108.959 20.9134 107.915 22.5299C103.215 29.8358 100.659 38.3203 100.54 47.0138C100.514 48.9438 103.497 48.9459 103.529 47.0138H103.525Z" fill="#F5CA21"/>
<path d="M108.667 21.6655L108.428 21.5807L109.32 22.2693C109.121 21.9049 109.392 20.907 109.455 20.4981C109.559 19.8527 109.709 19.2155 109.903 18.5915C110.278 17.3947 110.785 16.2436 111.414 15.1594C111.771 14.5239 112.861 12.4223 113.837 13.1405C114.661 13.7485 114.31 15.8946 114.175 16.7632C113.974 18.0555 113.068 18.7122 112.113 19.4961L110.44 20.8689C110.256 21.0193 109.836 21.2439 109.726 21.4515C109.303 21.734 109.58 21.7996 110.556 21.6485L110.592 21.3053C111.179 20.2333 111.691 19.102 112.324 18.0343L114.6 14.1891L111.868 13.8311C112.143 15.348 111.371 16.2822 110.471 17.3712C109.626 18.3881 109.204 19.4897 109.521 20.8138C109.977 22.6866 112.859 21.8943 112.402 20.0172C112.278 19.5045 113.171 18.8563 113.448 18.5173C113.856 18.0184 114.188 17.4616 114.433 16.8649C114.91 15.6468 115.021 14.3149 114.75 13.0345C114.511 11.721 112.637 11.6384 112.018 12.6765L109.031 17.7292C108.211 19.1147 107.273 20.7185 107.664 22.39C108.01 23.8836 109.462 25.017 110.953 24.2098C111.674 23.82 112.299 23.1844 112.931 22.6675C113.693 22.032 114.49 21.4409 115.219 20.7757C116.55 19.5575 117.072 18.0978 117.217 16.3267C117.363 14.5556 117.382 12.6426 116.161 11.2274C115.083 9.97535 113.389 9.68301 111.9 10.3461C110.345 11.0368 109.405 12.5642 108.621 14.0048C107.63 15.7669 106.939 17.6822 106.576 19.6719C106.29 21.3901 105.834 23.82 107.873 24.5446C109.69 25.1801 110.471 22.2925 108.667 21.6549V21.6655Z" fill="#F5CA21"/>
<path d="M68.8237 51.2234L69.7639 51.1026C69.901 51.0848 70.0404 51.1059 70.1662 51.1635C70.292 51.2211 70.3991 51.3129 70.4755 51.4285C70.5518 51.5442 70.5943 51.6789 70.5981 51.8175C70.6019 51.9562 70.5669 52.0931 70.497 52.2127L70.0217 53.0326C69.9613 53.1371 69.9271 53.2547 69.922 53.3753C69.9168 53.496 69.9409 53.6161 69.9921 53.7254L70.3956 54.5833C70.4549 54.7086 70.478 54.848 70.4622 54.9858C70.4465 55.1235 70.3925 55.2541 70.3065 55.3627C70.2205 55.4712 70.1058 55.5534 69.9756 55.5999C69.8453 55.6464 69.7046 55.6553 69.5695 55.6257L68.6442 55.4266C68.527 55.4009 68.4053 55.4042 68.2897 55.4363C68.1741 55.4684 68.0681 55.5283 67.9808 55.6109L67.292 56.2613C67.1914 56.3564 67.0664 56.4215 66.9308 56.4491C66.7953 56.4767 66.6548 56.4658 66.5251 56.4175C66.3954 56.3693 66.2818 56.2856 66.1971 56.176C66.1123 56.0664 66.0599 55.9352 66.0456 55.7973L65.9505 54.8524C65.9384 54.7327 65.8974 54.6177 65.8311 54.5173C65.7649 54.4169 65.6754 54.3342 65.5702 54.2762L64.7399 53.8207C64.6185 53.754 64.5182 53.6546 64.4502 53.5337C64.3822 53.4128 64.3494 53.2753 64.3553 53.1366C64.3612 52.998 64.4057 52.8638 64.4838 52.7492C64.5618 52.6346 64.6703 52.5441 64.7969 52.4881L65.6632 52.1047C65.772 52.0557 65.8673 51.981 65.941 51.8869C66.0146 51.7928 66.0642 51.6821 66.0857 51.5644L66.2632 50.6302C66.2893 50.4942 66.3527 50.3682 66.4464 50.2664C66.54 50.1646 66.6602 50.0911 66.7933 50.0541C66.9263 50.0171 67.0671 50.0181 67.1996 50.057C67.3322 50.0959 67.4512 50.1712 67.5434 50.2743L68.1772 50.9818C68.2573 51.0717 68.358 51.1407 68.4707 51.1828C68.5833 51.2249 68.7045 51.2388 68.8237 51.2234Z" fill="#F5CA21"/>
<path d="M82.2141 48.1303L83.1584 48.0879C83.2962 48.0825 83.4327 48.1159 83.5525 48.1841C83.6724 48.2524 83.7708 48.3529 83.8367 48.4743C83.9026 48.5957 83.9334 48.7331 83.9255 48.8711C83.9177 49.0091 83.8715 49.1422 83.7922 49.2552L83.2514 50.0327C83.1824 50.1315 83.1385 50.2456 83.1234 50.3652C83.1083 50.4848 83.1225 50.6063 83.1648 50.7191L83.4964 51.609C83.5445 51.7388 83.5555 51.8795 83.5281 52.0153C83.5006 52.151 83.4359 52.2764 83.3413 52.3773C83.2466 52.4782 83.1258 52.5505 82.9923 52.5862C82.8588 52.6219 82.7181 52.6194 82.5859 52.5792L81.6817 52.3038C81.5667 52.2684 81.4448 52.2617 81.3266 52.2842C81.2084 52.3067 81.0975 52.3578 81.0035 52.433L80.2619 53.0241C80.1537 53.1102 80.0236 53.1642 79.8864 53.1801C79.7491 53.196 79.6102 53.1732 79.4852 53.1142C79.3602 53.0551 79.2542 52.9623 79.179 52.846C79.1038 52.7298 79.0625 52.5949 79.0598 52.4564L79.0429 51.5073C79.0405 51.3869 79.0091 51.2689 78.9513 51.1634C78.8935 51.0579 78.8111 50.968 78.7112 50.9013L77.921 50.3781C77.8059 50.3014 77.7145 50.1941 77.657 50.0682C77.5994 49.9422 77.5782 49.8026 77.5955 49.6652C77.6129 49.5277 77.6682 49.3979 77.7552 49.2903C77.8422 49.1826 77.9574 49.1016 78.088 49.0561L78.9837 48.7468C79.097 48.7071 79.199 48.6405 79.281 48.5527C79.3631 48.4649 79.4227 48.3585 79.4549 48.2426L79.7084 47.3273C79.745 47.1937 79.8182 47.0731 79.9196 46.9791C80.0211 46.8851 80.1469 46.8215 80.2826 46.7954C80.4183 46.7694 80.5585 46.782 80.6874 46.8318C80.8163 46.8817 80.9287 46.9667 81.0119 47.0774L81.5824 47.8358C81.6557 47.9329 81.7516 48.0105 81.8617 48.0618C81.9718 48.1131 82.0928 48.1366 82.2141 48.1303Z" fill="#F5CA21"/>
<path d="M59.4941 52.7402C55.546 52.0457 51.4813 52.5343 47.8087 54.1448C47.0608 54.4669 46.9087 55.5536 47.2721 56.1934C47.7115 56.9667 48.5799 57.0409 49.3172 56.7316C52.2745 55.4694 55.5316 55.087 58.6997 55.6299C60.5821 55.9541 61.3892 53.0665 59.4941 52.7402Z" fill="#F5CA21"/>
<path d="M59.5617 57.0387C57.1615 57.747 54.903 58.8697 52.8876 60.3564C52.2348 60.8415 51.9221 61.6487 52.351 62.4071C52.7186 63.0427 53.7496 63.424 54.3961 62.9431C56.1921 61.5977 58.2092 60.5781 60.3561 59.9306C62.1962 59.3798 61.4124 56.4858 59.5617 57.0387Z" fill="#F5CA21"/>
<path d="M90.5065 46.6939C91.5254 45.7446 92.7297 45.0178 94.0433 44.5594C95.3568 44.101 96.751 43.921 98.1375 44.0309C100.058 44.1581 100.039 41.1603 98.1375 41.0332C96.358 40.9228 94.5749 41.1803 92.8988 41.7897C91.2227 42.399 89.6893 43.3472 88.3938 44.5754C86.9846 45.8952 89.1015 48.0095 90.5065 46.6939Z" fill="#F5CA21"/>
<path d="M90.5254 51.7233C92.113 51.312 93.745 51.0985 95.3846 51.0878C97.3072 51.0708 97.3114 48.0731 95.3846 48.09C93.4771 48.1047 91.5785 48.353 89.7311 48.8294C87.8698 49.3103 88.6578 52.2022 90.5254 51.7212V51.7233Z" fill="#F5CA21"/>
</g>
<path d="M169 128.383C168.637 128.449 168.091 128.531 167.365 128.631C166.671 128.763 165.961 128.829 165.234 128.829C164.507 128.829 163.846 128.779 163.252 128.68C162.69 128.581 162.211 128.383 161.815 128.085C161.418 127.788 161.104 127.392 160.873 126.896C160.675 126.368 160.576 125.69 160.576 124.864V96.123C160.939 96.057 161.468 95.9744 162.161 95.8753C162.888 95.7431 163.615 95.6771 164.342 95.6771C165.069 95.6771 165.713 95.7266 166.274 95.8257C166.869 95.9248 167.365 96.123 167.761 96.4204C168.158 96.7177 168.455 97.1306 168.653 97.6592C168.884 98.1548 169 98.8155 169 99.6414V128.383Z" fill="#F5C41E"/>
<path d="M145.24 123.068C145.802 123.068 146.413 123.019 147.074 122.92C147.767 122.788 148.279 122.622 148.61 122.424V118.46L145.042 118.757C144.117 118.823 143.357 119.021 142.762 119.352C142.168 119.682 141.87 120.178 141.87 120.838C141.87 121.499 142.118 122.044 142.614 122.474C143.142 122.87 144.018 123.068 145.24 123.068ZM144.844 103.594C146.628 103.594 148.246 103.775 149.7 104.139C151.186 104.502 152.442 105.064 153.466 105.824C154.523 106.55 155.333 107.492 155.894 108.648C156.456 109.771 156.737 111.109 156.737 112.662V123.762C156.737 124.621 156.489 125.331 155.993 125.893C155.531 126.422 154.969 126.884 154.308 127.28C152.161 128.569 149.138 129.213 145.24 129.213C143.489 129.213 141.903 129.048 140.483 128.718C139.095 128.387 137.889 127.892 136.865 127.231C135.874 126.57 135.098 125.728 134.536 124.704C134.008 123.68 133.743 122.49 133.743 121.136C133.743 118.856 134.421 117.105 135.775 115.883C137.13 114.661 139.227 113.901 142.069 113.604L148.56 112.91V112.563C148.56 111.605 148.131 110.928 147.272 110.531C146.446 110.102 145.24 109.887 143.654 109.887C142.399 109.887 141.177 110.019 139.987 110.283C138.798 110.548 137.724 110.878 136.766 111.275C136.337 110.977 135.973 110.531 135.676 109.937C135.379 109.309 135.23 108.665 135.23 108.004C135.23 107.145 135.428 106.468 135.825 105.972C136.254 105.444 136.898 104.998 137.757 104.634C138.715 104.271 139.839 104.007 141.127 103.841C142.448 103.676 143.687 103.594 144.844 103.594Z" fill="#F5C41E"/>
<path d="M120.032 112.328C121.419 112.328 122.477 112.014 123.203 111.386C123.963 110.725 124.343 109.734 124.343 108.413C124.343 107.157 123.947 106.199 123.154 105.539C122.394 104.845 121.271 104.498 119.784 104.498C119.256 104.498 118.81 104.514 118.446 104.548C118.116 104.548 117.769 104.581 117.406 104.647V112.328H120.032ZM117.455 128.234C117.092 128.333 116.514 128.433 115.721 128.532C114.961 128.631 114.201 128.68 113.441 128.68C112.681 128.68 112.004 128.614 111.409 128.482C110.848 128.383 110.369 128.185 109.972 127.887C109.576 127.59 109.279 127.177 109.08 126.649C108.882 126.12 108.783 125.426 108.783 124.567V101.227C108.783 100.534 108.965 100.005 109.328 99.6417C109.725 99.2452 110.253 98.9314 110.914 98.7001C112.037 98.3037 113.309 98.0229 114.73 97.8577C116.183 97.6595 117.637 97.5604 119.09 97.5604C123.649 97.5604 127.135 98.535 129.546 100.484C131.958 102.433 133.164 105.076 133.164 108.413C133.164 110.032 132.899 111.502 132.371 112.823C131.875 114.111 131.115 115.235 130.091 116.193C129.1 117.118 127.828 117.845 126.276 118.373C124.756 118.869 122.989 119.116 120.973 119.116H117.455V128.234Z" fill="#F5C41E"/>
<path d="M105.674 124.072C105.508 125.624 105.046 126.814 104.286 127.639C103.559 128.465 102.486 128.878 101.065 128.878C100.008 128.878 99.0664 128.631 98.2405 128.135C97.4146 127.606 96.5226 126.731 95.5645 125.509L90.6587 119.364V128.383C90.2953 128.449 89.7502 128.531 89.0234 128.631C88.3297 128.763 87.6194 128.829 86.8926 128.829C86.1658 128.829 85.5051 128.779 84.9104 128.68C84.3488 128.581 83.8698 128.383 83.4734 128.085C83.0769 127.788 82.7631 127.392 82.5318 126.896C82.3336 126.368 82.2345 125.69 82.2345 124.864V96.1726C82.5979 96.0735 83.1265 95.9744 83.8202 95.8753C84.547 95.7431 85.2738 95.6771 86.0006 95.6771C86.7274 95.6771 87.3716 95.7266 87.9332 95.8257C88.5279 95.9248 89.0234 96.123 89.4198 96.4204C89.8163 96.7177 90.1136 97.1306 90.3118 97.6592C90.5431 98.1548 90.6587 98.8155 90.6587 99.6414V112.724L99.182 104.002C100.9 104.002 102.271 104.382 103.295 105.142C104.352 105.902 104.881 106.86 104.881 108.016C104.881 108.512 104.798 108.974 104.633 109.404C104.468 109.8 104.203 110.213 103.84 110.642C103.51 111.072 103.064 111.534 102.502 112.03C101.974 112.492 101.346 113.038 100.619 113.665L97.7449 116.143L105.674 124.072Z" fill="#F5C41E"/>
<path d="M79.5128 116.39C79.5128 118.438 79.199 120.272 78.5713 121.891C77.9436 123.476 77.0516 124.814 75.8954 125.904C74.7722 126.995 73.4177 127.821 71.832 128.382C70.2462 128.944 68.4788 129.225 66.5297 129.225C64.5805 129.225 62.8131 128.927 61.2274 128.333C59.6417 127.738 58.2707 126.896 57.1144 125.805C55.9912 124.682 55.1157 123.328 54.488 121.742C53.8603 120.156 53.5465 118.372 53.5465 116.39C53.5465 114.441 53.8603 112.674 54.488 111.088C55.1157 109.502 55.9912 108.164 57.1144 107.074C58.2707 105.951 59.6417 105.092 61.2274 104.497C62.8131 103.902 64.5805 103.605 66.5297 103.605C68.4788 103.605 70.2462 103.919 71.832 104.547C73.4177 105.141 74.7722 106 75.8954 107.124C77.0516 108.214 77.9436 109.552 78.5713 111.137C79.199 112.723 79.5128 114.474 79.5128 116.39ZM62.1689 116.39C62.1689 118.405 62.5488 119.958 63.3087 121.048C64.1015 122.105 65.1917 122.634 66.5792 122.634C67.9667 122.634 69.0239 122.089 69.7507 120.999C70.5105 119.908 70.8904 118.372 70.8904 116.39C70.8904 114.408 70.5105 112.888 69.7507 111.831C68.9909 110.741 67.9172 110.196 66.5297 110.196C65.1422 110.196 64.0685 110.741 63.3087 111.831C62.5488 112.888 62.1689 114.408 62.1689 116.39Z" fill="#F5C41E"/>
<path d="M51.9631 116.39C51.9631 118.438 51.6492 120.272 51.0215 121.891C50.3938 123.476 49.5019 124.814 48.3456 125.904C47.2224 126.995 45.8679 127.821 44.2822 128.382C42.6965 128.944 40.929 129.225 38.9799 129.225C37.0308 129.225 35.2633 128.927 33.6776 128.333C32.0919 127.738 30.7209 126.896 29.5646 125.805C28.4414 124.682 27.5659 123.328 26.9383 121.742C26.3106 120.156 25.9967 118.372 25.9967 116.39C25.9967 114.441 26.3106 112.674 26.9383 111.088C27.5659 109.502 28.4414 108.164 29.5646 107.074C30.7209 105.951 32.0919 105.092 33.6776 104.497C35.2633 103.902 37.0308 103.605 38.9799 103.605C40.929 103.605 42.6965 103.919 44.2822 104.547C45.8679 105.141 47.2224 106 48.3456 107.124C49.5019 108.214 50.3938 109.552 51.0215 111.137C51.6492 112.723 51.9631 114.474 51.9631 116.39ZM34.6191 116.39C34.6191 118.405 34.9991 119.958 35.7589 121.048C36.5517 122.105 37.6419 122.634 39.0295 122.634C40.417 122.634 41.4741 122.089 42.2009 120.999C42.9607 119.908 43.3407 118.372 43.3407 116.39C43.3407 114.408 42.9607 112.888 42.2009 111.831C41.4411 110.741 40.3674 110.196 38.9799 110.196C37.5924 110.196 36.5187 110.741 35.7589 111.831C34.9991 112.888 34.6191 114.408 34.6191 116.39Z" fill="#F5C41E"/>
<path d="M16.7988 104.447C14.2551 104.447 12.3059 105.223 10.9514 106.776C9.59697 108.328 8.91973 110.525 8.91973 113.366C8.91973 116.241 9.66304 118.454 11.1497 120.007C12.6693 121.559 14.701 122.336 17.2448 122.336C18.5993 122.336 19.739 122.154 20.664 121.791C21.6221 121.427 22.5306 121.014 23.3895 120.552C23.9511 121.014 24.3806 121.576 24.6779 122.237C25.0083 122.864 25.1735 123.608 25.1735 124.467C25.1735 125.821 24.4136 126.977 22.894 127.935C21.4074 128.86 19.1279 129.323 16.0555 129.323C13.8421 129.323 11.7608 129.009 9.8117 128.381C7.86258 127.754 6.16122 126.796 4.70764 125.507C3.25405 124.186 2.09779 122.534 1.23885 120.552C0.41295 118.537 0 116.142 0 113.366C0 110.79 0.396433 108.527 1.1893 106.578C2.0152 104.595 3.12191 102.927 4.50942 101.573C5.92997 100.218 7.58177 99.194 9.46483 98.5003C11.3479 97.8065 13.3631 97.4596 15.5104 97.4596C18.5497 97.4596 20.8953 97.9552 22.5471 98.9462C24.2319 99.9373 25.0744 101.209 25.0744 102.762C25.0744 103.621 24.8596 104.364 24.4302 104.992C24.0007 105.62 23.5051 106.115 22.9435 106.478C22.0846 105.917 21.1596 105.438 20.1685 105.041C19.2105 104.645 18.0872 104.447 16.7988 104.447Z" fill="#F5C41E"/>
<defs>
<clipPath id="clip0_1_3739">
<rect width="113" height="87" fill="white" transform="translate(28 0.677094)"/>
</clipPath>
</defs>
</svg>
