<?xml version="1.0"?><!DOCTYPE svg  PUBLIC '-//W3C//DTD SVG 1.1//EN'  'http://www.w3.org/Graphics/SVG/1.1/DTD/svg11.dtd'><svg enable-background="new 0 0 236.2 200" id="Layer_1" version="1.1" viewBox="0 0 236.2 200" xml:space="preserve" xmlns="http://www.w3.org/2000/svg" xmlns:xlink="http://www.w3.org/1999/xlink"><g><path d="M22.6,105.8l11.9,11.9l25.7-25.6L48.4,80.2l0,0L43,74.8c-4.3-4.3-6.6-9.9-6.6-16c0-5.3,1.8-10.1,4.9-13.9   l0,0l0,0l0,0l0,0c4.2-5.3,10.6-8.7,17.8-8.7c6.1,0,11.7,2.4,16.1,6.7l5.3,5.1L92.4,60l25.8-25.6l-12-11.9l-5.4-5.2   C90.1,6.6,75.4,0,59.1,0C26.4,0,0,26.4,0,58.9C0,67,1.6,74.7,4.6,81.8c3,7.1,7.3,13.4,12.7,18.7L22.6,105.8" fill="#EA4335"/><polyline fill="#FBBC04" points="81.5,122.2 118.2,85.7 92.4,60 60.2,92.1 60.2,92.1 34.5,117.7 48.3,131.6 60.2,143.4 72.6,131     "/><polygon fill="#34A853" points="143.8,175.6 201.8,117.7 176,92.1 118.1,149.9 85.9,117.8 60.2,143.4 92.4,175.6 92.3,175.7    118.1,200 118.1,200 118.1,200 143.9,175.6 143.9,175.6  "/><path d="M218.9,100.5c12-12,18.9-30.4,17-49c-2.8-28.2-26.2-49.4-54.6-51.3c-17.9-1.2-34.3,5.5-45.9,17.1L92.4,60   l25.7,25.7l43-42.8c5.2-5.1,12.4-7.5,19.8-6.3c9.6,1.5,17.4,9.4,18.7,19c1,7.2-1.4,14.2-6.5,19.3L176,92.1l25.8,25.6L218.9,100.5z" fill="#4285F4"/></g></svg>