<svg version="1.1" id="Layer_1" xmlns="http://www.w3.org/2000/svg" xmlns:xlink="http://www.w3.org/1999/xlink" x="0px" y="0px" viewBox="0 0 64 62.1" style="enable-background:new 0 0 64 62.1;" xml:space="preserve">
 <style type="text/css">
  .st0{fill-rule:evenodd;clip-rule:evenodd;fill:#00AA13;}
 </style>
 <g>
  <g id="Group_2_">
   <path id="Combined-Shape_5_" class="st0" d="M32,0c17.7,0,32,14.3,31.9,32.1c0,13.3-8,24.7-19.6,29.6c-0.6,0.3-1.5,0.5-2.3,0.5
			c-3.3,0-6-2.7-6-6c0-2.5,1.5-4.6,3.7-5.5l0,0l0.4-0.2c7-3.1,11.8-10.1,11.8-18.3c0-11.1-9-20-20-20s-20,9-20,20
			c0,8.3,5.1,15.4,12.3,18.5l0,0l0.3,0.1c2,1,3.4,3,3.4,5.4c0,3.3-2.7,6-6,6c-0.8,0-1.7-0.2-2.3-0.5C8,56.7,0,45.3,0,32.1
			C0,14.3,14.4,0,32,0z M32,20c6.6,0,12,5.4,12,12s-5.4,12-12,12s-12-5.4-12-12S25.4,20,32,20z">
   </path>
  </g>
 </g>
</svg>